<svg id="Layer_1" data-name="Layer 1" xmlns="http://www.w3.org/2000/svg" viewBox="0 0 3000 3000"><defs><style>.cls-1{fill:#fefefe;}.cls-2{fill:#7c5532;}.cls-3{fill:#fff;}</style></defs><title>logo</title><rect class="cls-1" width="3000" height="3000"/><rect class="cls-2" x="1303.81" y="1466.74" width="587.23" height="304.52"/><path class="cls-1" d="M2294.92,1041.92l-3.65-19a122,122,0,0,0-15.6-34.62A145,145,0,0,0,2249,958.13q-30.5-26.5-80.85-45,21.72-53.85,22.43-98.53-4.7-55.12-33.75-112.3-86.39-173.64-331.55-106.78-54.76-109.89-82.85-135.9Q1676.71,410.1,1640,407.14h-.21a279.88,279.88,0,0,0-24.88-14.39l-21.43-9.68a242.45,242.45,0,0,0-90.33-17.2l-16.91.55q-102.51,5.38-220.82,94.57-17.43,11.46-61.77,60.31-45.26,58.68-85,130.43a148.3,148.3,0,0,1-30,27.59q-9,5.53-28.14,8.78Q956.15,697.85,941,702.35q-23,5.07-58.8,21.9-30.87,17.18-36.4,25.58l-22.5,25.76a399.14,399.14,0,0,0-33.9,46.95q-11.25,12.88-23.1,59-2.14,17.37,3.1,31.68c.36.82.74,1.6,1.1,2.42a42.82,42.82,0,0,0,.07,14.37,143.87,143.87,0,0,0-5.66,42.51A82.69,82.69,0,0,0,748,990.12a104.7,104.7,0,0,0-9.14,17.19l-.72,2c-2.17,3.08-4.26,6.28-6.24,9.66q-15.95,31.47-17.41,40.73a297.09,297.09,0,0,0-8,33.31q-1.31,30.23,4.17,48.53a358.59,358.59,0,0,0,16,50.08,90.52,90.52,0,0,0,11.8,22.47q12.43,14.36,19.63,15.83,3.85.08,7.3-.08a124.58,124.58,0,0,0-3.3,20.19Q758,1282,779.85,1326.91q17.11,25.38,128.26,62.45,54.63,17.81,117.19,15.6,1.85.24,2.2,11.06-7.85,72.48-2.82,220.61c2.71,6.78,9.45,8,20.14,3.69a36,36,0,0,0,6.11,2.53q255.66-64.35,420.73-57.59,152.64,2.23,295.89,26.78,37.62,5.64,229,56.41,20.79,4.82,26.42,3.08l3.83-188.34q8.67-60.45,12.63-101.56,45.12-11.64,72.42-22.65,63.07-29.34,87.56-66.73l18.45-52.45q2.79-20.58,21.27-78.08,1-8.45,1.32-16.18l14.71-7,14-10.33,11.05-12.65,8.1-14.95,5.15-17.26Q2297.13,1065,2294.92,1041.92Z"/><path class="cls-2" d="M2282.3,956.13c-1.36-1.51-2.75-3-4.14-4.41-2-2.64-4.08-5.25-6.3-7.8q-5-5.74-10.67-11.17t-12.09-10.56l-6.56-5.06q-7.64-5.46-21.42-11.14-19.56-8.13-31.39-12.35a119.29,119.29,0,0,0,4.91-12q13.24-32.53,11.41-84.48-6.32-108.48-84.42-171.1-42-34.1-86.69-50.22-48.92-17.72-113.39-19h-3.33q-48.6,1.57-78.62,11.27-11.31,2.16-21,4.56a221.29,221.29,0,0,0-19.66-54.1q-72-162.81-276.28-165.63l-10,.12q-66.37,2.64-113.41,19.35a497.1,497.1,0,0,0-211.67,137q-15.09,15.13-45.76,57l-51.56,78q-13.7,18.48-29.31,26.32-7.11,3.76-18.28,3.78-55.91-8.18-56.58-6.28a193.07,193.07,0,0,0-48.27,9.39Q862,702.41,813.67,751.71q-71.85,74.46-60.81,169.13a128.21,128.21,0,0,0,10,33.11l0,0q-18.84,18.5-21.22,21.76a280.4,280.4,0,0,0-26.71,33.75q-19.21,27.46-25,66.31a172.49,172.49,0,0,0-.35,33.53c0,.3,0,.6,0,.9l.66,9.44a190.78,190.78,0,0,0,2.86,19.08q3.25,17.77,13.05,41.82,16,38.85,35.74,56.93a128.82,128.82,0,0,0-.12,24.73q8.33,89.67,96,131.78,36.25,17.88,95.89,25.1,30.19,3,58.63,3,9,0,17.8-.29l1-23.06q-98.94-1.15-171.34-32.78-72.06-34.8-80.15-114.36-3.57-22.81,8.83-48.18,9.56-21,47.55-72.37h0l-2.69,1.86a232.91,232.91,0,0,0-59.57,67.72,81.32,81.32,0,0,0-4,7.69c-5.33-6.91-8.74-11.62-10.13-14q-14.85-24.22-19.05-38-9.07-25.78-7.77-56.76l.52-5.9a126.06,126.06,0,0,1,2.1-12.48q1.41-6.46,3.53-13.38a246.72,246.72,0,0,1,11.31-29.45q12.45-23.71,23.3-40.7,13.22-19.75,15.37-21.68c1.31-1.62,2.59-3.11,3.85-4.54q24.91,36.82,78.33,59.14-74.87-55-79.09-105.29-6-84.18,48.3-141.49,43.15-47.55,111.51-71.42,30.06-10.62,51.89-12.43l47.67,2.52,24.28-1.87A102,102,0,0,0,1089,688.81q16.93-9.25,31-28.59,40.76-71.61,72.52-108.88a489.58,489.58,0,0,1,56.22-58q80.33-70,185-98.35,97.64-23.42,190.7,3.65,76.89,23.78,122.71,89.18,54,82.21,50,144.26,2.14,55.39-62.68,187.26,96.27-115.71,88.13-219,21.67-6,26.53-6.64a378.29,378.29,0,0,1,50.1-7.45q6.35-1,35-.7,14.25.21,37.89,4.45,39.44,10.8,61.67,17.92a443.81,443.81,0,0,1,50.12,30.11q26.89,19.09,59.91,59a161.4,161.4,0,0,1,10.09,13.72q20.2,41.32,24.07,93.8,7.82,71.26-51.56,149.86-30.36,43.89-178.3,132.27,144.33-61.4,194.44-118.93,6.82-5.58,32.72-47.79,5.68,1.58,11.12,3.41l12,4.5a172.73,172.73,0,0,1,22.07,11,155.27,155.27,0,0,1,36.73,30.15q20.24,26.45,24.74,46.26,4.3,17,1.75,53.78-11.45,38.53-50.88,77.29-16.48,18.7-139,99.38,92.11-44,131.56-71.08.55,5.6,1.06,13.82a152.55,152.55,0,0,1-.86,18.36q-1.24,16.39-9.92,46.06-7.11,22.08-34.53,59a234,234,0,0,1-24.14,23.47c-2.1,1.77-4.24,3.5-6.4,5.18q-31.58,17-91.5,36.71l2.49-41.77q.54-16,.26-26.78c-.14-3.33-.27-6-.4-8.06,3.81-1.66,7.56-3.36,11.2-5.15l9.32-4.8q9.12-5,17.51-10.49a209.27,209.27,0,0,0,30.62-24.53q-26.73,10.83-44.61,14.44a123.25,123.25,0,0,1-33.06,2.66,175.83,175.83,0,0,1-33.11-5.4c-2.78-.74-8.94-2.71-18.41-5.89q-30.7-13.78-80.09-33.44,3-5.85,6.32-11.63,2.34-5.67,22.06-32.07A329.7,329.7,0,0,1,1988,1144q16.59-15.26,42.85-31.94,13.13-8.34,28.68-17,6.27-4.12,52.05-26.9l-17.36,4.13q-17.33,4.56-34.49,10.88t-34.19,14.41l-17,8.52q-58.92,32.48-84,58.36a318.28,318.28,0,0,0-41.9,48.76q-21.15-8.2-44.93-17.24-22.67-7.65-43.55-13.39a337.27,337.27,0,0,0-35.64-12.38q-28.62-7.23-62.86-13.71c-.54-4.69-.88-9.54-1-14.59l.3-13a231.34,231.34,0,0,1,3.51-28.14q5.46-29.61,18.68-65a623.81,623.81,0,0,1,32.65-69.57q9.95-18.4,21.68-37.82,4.77-9.09,39.21-60.53l-12.58,13.52q-50.31,55.53-100.63,134.34-11.76,20.05-21.17,38.42-6.16,10.23-23,51.29a261.4,261.4,0,0,0-12.13,41.8q-17.6-2.72-36.35-5.28-69.06-7.83-82.58-8-28.08-2-53-2l-16.1.19c-1.34-2.13-2.64-4.31-3.84-6.6a118.32,118.32,0,0,1-7.65-18,155.69,155.69,0,0,1-5.28-20.68l-1.75-11.35q-3.39-20.61-4.81-64.65-1.62-26.43-.53-146.66l-5.46,36q-5.16,48.35-7.08,61-4.38,30.12-7.87,49.74-5.75,21.72-13.67,50-3,8.82-6.51,16.75a131.41,131.41,0,0,1-32.09,46.63l-21.82,10a230.9,230.9,0,0,1-24,8.39q-27,8.39-42.69,4-19.76-5.46-32.81-12-25.07-12.69-39.51-23.48c-3.6-2.56-7.84-5.79-12.65-9.63q-8.22-8.68-21.08-23.09-58.14-74.87-84.81-119.37-14.65-22.49-52.3-100.79-2.65-3.78-4.19-3.86l15.11,45.71q47.76,133.6,124.68,224.86a552,552,0,0,0,43,45.44q-5.65,1.59-11,3.18-67.39,14.22-120.79,35.72-25.27,1.88-29.9,2-81.72,1-92.15,3.58-26.57,2.78-66.6,16.08,21.35-1.25,75.46,6.65,11.31,2.13,12.92,2.87a58.65,58.65,0,0,1,13.43,5.67q17.6,10.76,26,25.7l4.65,8.38c.25.5.48,1,.73,1.54,0,1.56,0,3.16,0,4.79q-1.35,28.92-1.4,40.34-1.58,22.92-3,51.07l-8.29,198.78a195.51,195.51,0,0,0-2.83,23.22q-.25,2-1.45,44.15.6,10.11,3.32,13.63c1.62,1.59,4.44,2.07,8.46,1.41,9.78-2,21.58-3.88,35.3-5.72,1,0,2,0,3-.05l6.7-1.19c3-.38,6.1-.75,9.29-1.11q4.13-.61,8.66-1.6c1.46-.35,2.25-.64,2.35-.87h0q287.41-50,463.82-40.49,152.2,4.9,427.4,77.91c8.06,3.25,16.64,6.24,25.8,8.92q36.35,11.55,49.76,8.43,10.65-4.11,12.3-11a78,78,0,0,0,1.52-11.74v0c.16-.93.34-1.88.46-2.78q.66-5.1.82-8.27l0-.64.15-7.51c.26-2,.47-4.09.6-6.27l-.45-252.83q65.43-18.13,109.91-45.61,48-30.56,66.59-81.7,20-58.17,9.81-115.24h0v0q49.8-41.93,62.93-91.89Q2320.56,1007.06,2282.3,956.13ZM1046.38,1277.78l.59-4.5,2.32-23.81c9.93-4.18,21-8.51,33.38-13q82.63-28.56,139.43-43.68,21.78-6.11,43.86-11.2l128.32-18.45q91.29-7,197.13,2,69.35,5.83,162.34,31.18l22.37,7.2c-2.91-1.09-5.9-2.18-8.95-3.24l-3.45-1.19q8.16,2.28,16.49,4.7,47.88,14.46,89.56,29.16c-.1.18-.21.34-.32.52l2.64.3q13.29,4.71,26,9.44,67.89,30.88,132.53,64.93-1.32,2.36-2,43.42c-36.07-17.79-77.56-36.89-157.28-65.1-92.45-32.71-237.3-78-385.59-80.39-145-2.3-292.73,36.51-439.32,75.85,0-.46,0-.94,0-1.4C1046.4,1279.57,1046.39,1278.67,1046.38,1277.78Zm491.19,298.66q-83.37-5.32-223.06,7.4-181.21,20.58-283.1,43.46c.33-7.26.54-12.56.61-15.81,0-.54,0-1,0-1.58.28-2.12.53-4.34.74-6.73l8-168.82q.8-18.6,1.5-35.65c0-.11,0-.21,0-.31h0q2.45-59.69,3.63-100.27c148.45-39.85,295.6-78.81,439.51-76.52,145.65,2.31,288.53,46.9,380.65,79.5,83.91,29.69,124.89,49.11,162.23,67.67q-.1,8.6-.19,18.38h0q-.06,10.69-.13,22.83h0q-.49,90.15.31,260c-5.4-1.38-11.38-2.88-17.9-4.5l-.52-.16q-145.41-39-216.7-53.56Q1659.51,1582.66,1537.57,1576.44ZM2058.63,1385h0v0Z"/><path class="cls-2" d="M1062.82,1429.29l0-.32c0-.21,0-.43,0-.64l0-.31c0-.21,0-.42-.07-.62l0-.3h0l.26,2.85C1062.85,1429.73,1062.83,1429.51,1062.82,1429.29Z"/><path class="cls-2" d="M1093.17,1571.38q-9.92-9-16.9-26-3.9-9.41-5.39-23.35-1.35-11.49-2.16-28.52l-5.84-63.23,0,.92c.09,2.87.1,5.25,0,7.15q-1.85,50.79-3.13,80.82-2.1,47.17-2.49,47.54-.39,10.69-.55,23a42.35,42.35,0,0,0,.26,7q10.44,3.91,66.4-5.61Q1095.28,1576.11,1093.17,1571.38Z"/><path class="cls-3" d="M2394.52,1480.32q-4.18-4.33-8.26-8.37-12.08-29.82-41.27-45.33a127.93,127.93,0,0,1,4.59,13.37q-27.37-20.12-48.76-23.06-75.59-21.84-188.61-13-34.18,4.88-74.56,22.66-42.57,20.57-58.42,30.23-3.43,2.1-5.63,3.69l-2.85,1.75q-51.49,32.38-51.65,35.7a407.4,407.4,0,0,0-35.2,35.45h0q-14-8.31-41.55-6.93a163.51,163.51,0,0,0-26.31,2.75l-72.16,4.84a295.6,295.6,0,0,0-31.4,25q-36.35,15.56-82.92,43.34l-137.08,93.25q-31,12.21-57.51,22.95l-14,.37-3.9,6.94q-53.41,21.93-86.25,37.17-19.93,7.73-68.52,37.36l-7.19,4.4-33.82,21.94q-40.27,27.85-69.82,57.43l.29-.63-.37.72a329.57,329.57,0,0,0-42.59,51.74l-48.8,13.8-.48,1.45c-.56,2.07-1.11,4.13-1.66,6.16l-34.74,14.09a173,173,0,0,0-45,32.79q-48.51,30.81-100.18,78.18-15,13.63-40.08,38.23-18.12,21.9-74.57,78.59-7.41,7.29-15.12,14.7,1.25-5.13,2.53-10.56l-25.53,32.37q-16.56,15.46-34.26,31.38A207.62,207.62,0,0,0,676,2284.8q-17.46,23.29-38,62.45-5.91,9.49-19.83,45.91-6.88,6.11-12.27,86.18l-.45-1.26-1.11-4.87-.55-5.08a8.35,8.35,0,0,0-2.24,1l-.21.13a11.33,11.33,0,0,0-1.67,3.28c-.36.38-.78,2.83-1.23,7.35a83.38,83.38,0,0,0,.73,14.36,37.55,37.55,0,0,0,.84,5l-1.11,10.89a153.35,153.35,0,0,0,2.76,29.58q6.25,22.49,10.61,31.81,7.35,22.18,11.1,22.4l1.76,9.08q3.21,8.51,12.26,14.66l10.51,5.58q12,5,29.78,7.66a14.85,14.85,0,0,0,4.19,1l4,2.18,9.54,1.34q29.32,4.92,83.26-3.5,73.71-14.92,136.78-48.21,29.31-10.5,65.23-25.06,9.82-5.16,19.4-10.2,37.86-13.68,84.14-30.73,59.55-23.1,180.12-96.17l143.27-91.88q20.91-9.32,32.35-14.7,39.11-18.37,63.22-32.05,12.08-6.63,24.64-14.29,18.42-11.23,37.91-24.69,60.76-45.2,117.15-84.89l41.21-31,7-4q10.15-5.81,29.09-18a821.88,821.88,0,0,0,75.18-54.47l5.86-5.29q18.42-12.17,38-25.2,99.8-64,183.8-126.81,26.13-20.9,49.61-39.9l45.17-33q59.19-48.18,116.13-103.23,24.16-22.2,35.79-35.49,9.53-9.69,19-19.57,16.56-18.23,28.65-33.93a493.5,493.5,0,0,0,28-55.34q10.52-25.11,14.06-45.06Q2405.7,1515.44,2394.52,1480.32Zm-1189.34,774h0l5-1.94,0,0-5.9,4.14Z"/><path class="cls-2" d="M2385.92,1442.09q-4.35-4.66-8.56-8.73l.4-.78c-2.37-1.84-4.63-3.55-6.81-5.15-26.45-23.38-49.23-29.89-70.7-32.21-2.89-.84-5.87-1.68-9-2.53a97.32,97.32,0,0,0-16.28-1.9q-6.54,1.37-9.28,3l-.12.08a37.31,37.31,0,0,0-5.71,4.09,154.45,154.45,0,0,0-65.42-12.38,336.24,336.24,0,0,0-42,1.53c-6.41.22-13,.7-19.8,1.48-16.57,1.91-42,7.61-65.55,14.41a517.6,517.6,0,0,0-65.74,23.57,373.47,373.47,0,0,0-55.46,30c-16.72,11.06-25.14,17.66-33.07,24.53q-9.25,8-17.92,16.75-25.73-4.86-87.65,4.94-89.7,20.4-152.26,56.93c-1.69,1-3.36,1.9-5,2.86a748.86,748.86,0,0,0-94.45,59.34c-43.35,31.72-53.42,41.21-62.1,50.26q-8.75,9.13-16.55,18.54a147.8,147.8,0,0,0-23.68,7.9c-2.53,1.11-5.19,2.36-8,3.71q-13.71,4.85-23.13,8.6-12.56,4.78-63.29,29.32-11.2,5.31-27.1,14.47a872.73,872.73,0,0,0-90.3,52.06c-37,24.38-71.59,51.37-90.86,68.41s-24.75,23.41-30.35,31.22c-.93,1.31-1.88,2.68-2.82,4.08-25.87,10.23-59.12,25.76-90.73,43A844.79,844.79,0,0,0,902.62,2036c-38.06,30.55-72.78,64-93.57,87.8s-30,35.81-38.47,48.07q-1.46,2.1-2.88,4.21-8.26,5.8-19.49,14.68l-.53.44c-.39.2-.77.4-1.15.63s-.72.46-1.07.72C700.31,2225.33,655.09,2259,611.79,2382,589.38,2445.63,564.86,2540,600,2597.61c32.16,52.76,109.72,69.41,257.86,19.62,160.07-53.79,410.42-187.53,659.33-339.29,245.17-149.49,488.95-316.45,643.68-441.73,266.41-215.7,277.22-314.84,242.68-371.49A141.47,141.47,0,0,0,2385.92,1442.09Zm-229.28,72.05q-75,71.4-103.94,97.33c-2,1.83-4.07,3.62-6.08,5.38q-4.47,3.18-9.09,6.44l-27,14.18q-9.85,3.06-9.37-.16l11-47.17a353.1,353.1,0,0,1,17.87-44.49q4.39-9.48,43.62-74.77,12.47-18.86,21.17-27.87,7.62-8.82,28.24-18.63,6.53-2.6,33.17-7.77,31.49-4.38,55.79-3,9.54.66,29.75,6.76Q2215,1461,2199,1477.15,2192.15,1483.81,2156.64,1514.14ZM1840,1567.66q-17.82,26.35-40.36,61.46t-50,78.92l-6.72,10.74q-62.84,88.82-90.92,123.73-13.37,17.6-24.37,25.68a18.93,18.93,0,0,1-3.17,1.48,37.41,37.41,0,0,1-13.25,2.19c-1.33-1.29-2.75-2.65-4.28-4.09a56.21,56.21,0,0,1-7.1-14.23q-3.36-9.29-3.37-26.81,6.63-37.29,27.76-110.44Q1638,1671,1660.93,1634q30.46-49.48,87.38-81.19a436.85,436.85,0,0,1,115.39-18.67C1857.33,1542.66,1849.07,1554.3,1840,1567.66ZM1376.45,1906q-7.59,17.29-12.54,27l-24.42,36.61q-10.35,14.3-28.69,37.13-42.65,49.56-56,59.11c-2.37,2.21-4.26,3.45-5.66,3.75l1.41-50.58q21.56-92.13,19.77-134.39a123.93,123.93,0,0,1,12-36.87q21.33-37.5,68.48-72.1l58.63-29.57q9.33-4.56,32-12.19c3.18-1.34,5.8-2.47,7.88-3.38-6.4,12.06-23.31,54.87-37.45,90.06Q1390,1875.07,1376.45,1906Zm-354.8,219.69c-7.3,16.27-13,27.63-18,36.79-3.29,6.11-7,12.74-11.23,19.89q-16.62,22.93-30.81,40.08-27.81,34.16-46.14,43.37-11,4.53-14.33-21.48-.52-21.95-.38-38.35.88-11.51,2.43-24.29,6.21-33.55,14-52l10.6-23.78,21.3-40.81a272.56,272.56,0,0,1,24.65-30.46q9.53-11.37,39.54-36.29,25.25-18.76,81.08-47.4c-3.83,7.9-8.21,17.63-13.71,30.9-10,24.07-22,54.71-32.47,80.59S1028.94,2109.42,1021.65,2125.68ZM708.15,2291q1.54-9.36,6.94-24.6,7.47-19.93,18.64-32.91.48-1.18,4.25-5c-4.75,11.62-10.67,29-19.69,60.11-7.3,25.17-16.37,59-24.07,88.32Zm1673.06-812.69c24.76,40.61,31.51,125.83-235.1,341.69-154.11,124.77-396.74,290.84-640.31,439.34-247.27,150.77-495.51,283.42-653,336.37-144.92,48.7-206.32,27.92-230.48-11.71h0c-29.74-48.78-9.56-133.54,13.23-198.29,20.37-57.86,40.71-94.22,61-119.82q-9.94,26.35-16.39,64.71a710.13,710.13,0,0,0-13.86,101.15l-7.66,36.61q-2,14.74-.12,20.43,1.38,1.82,4-2.33,7.07-12.15,14.34-27.13.75-1.77,1.47-3.57,2.76-5.43,4.76-10c2.12-4.87,3.66-9,34-101.69,19.81-60.54,29.09-86.25,35-100.15a658.53,658.53,0,0,1,40.83-59.14,647.24,647.24,0,0,1,80.8-87.19q23.76-20,45.43-37-6.92,12.55-14.26,26.74-3.28,10.5-5.73,20.65-3.09,9.42-5.3,19.12a2.77,2.77,0,0,0-.32-.87h0c-.9-1.48-3.07-1.8-4.84-.72s-2.48,3.16-1.58,4.64h0c.91,1.48,3.07,1.8,4.85.72a4.28,4.28,0,0,0,1.34-1.3,229.64,229.64,0,0,0-4.67,32.9Q878,2270.07,899.25,2295.54q10.46,12.2,81.61-74.43a397.58,397.58,0,0,0,34.79-53.85c4.1-6.61,8.21-13.38,13.2-22.48q10.92-19.94,26.75-53.86t36.56-82c13.76-32,20.24-44.46,26.51-55.78s12.07-20.93,17.27-28.83a176.71,176.71,0,0,1,13.4-18.29c1.24-1.42,5.61-5.59,12.12-11.5q30.43-25.18,75.39-54.57,15.51-10.52,37.68-23.36-18.57,25-29.91,57.69-4.47,2.06-4.22,84.83-6.83,37.53-9.76,70a281.09,281.09,0,0,0-4.36,47.88q.21,13.84,6.84,20.38,10.56,11,17,6.32,6.12-2.59,17.35-16.29,46.44-55.56,56.93-71.12,8.49-10.54,15.75-20.09c11.75-15.41,21.2-28.84,26.36-35.62s11-15.64,19.25-31.39,19.3-39.06,33.26-70.1c13.77-30.61,30.3-68.76,41.87-94.53q20.88-35.85,57.19-73.42,26.29-31.9,113.43-85.79,14-8.45,28.11-15.86a207.72,207.72,0,0,0-33.33,48.85q-35,58.29-49.08,134.18-7.85,52.8-3.09,78.19,6,37.38,27.42,51.35,21.67,11.51,115.4-110.56,42.13-58.92,67-101.58c6.33-9.29,12.79-18.77,19-27.87q25.47-37.29,45.5-66c13.35-19.14,24.77-35.46,32.64-46.68,1.11-1.58,2.18-3.09,3.22-4.55l64-54.9q9.21-7.4,19-14,25.68-16.07,45.37-24.37,45.62-17.81,67-21c.58.19.42,1.05-.48,2.56q-31.4,43.17-38.11,54.11-9.24,14.55-23.13,40.71-15.43,28.62-31.83,83.33-11.46,37.53-4.47,49.34c1.63,1.84,4.14,3,7.52,3.6l-.06,0,1,.1c.39,0,.8.09,1.21.12l.73.08h.15q6.42-1,20.22-8c1.11-.53,2.26-1.09,3.47-1.69.79-.38,1.77-.92,2.93-1.62l0,0,0,0c.84-.5,1.76-1.08,2.79-1.75q13.48-8.35,37.36-27.77,4.2-3.21,43.31-39.43l.09-.06,5.39-5,49-42,14.61-11.71q13-12.23,30.51-26.82,14.28-13.05,33.55-31.08,5.93-5.19,7.76-8,11.16-13.32,24.58-30.88,1.66-1.8,3.84-3.74a22.12,22.12,0,0,1,4.73-3.1,2.58,2.58,0,0,1,1.32-1.54q8.52-3.33,45.17,7.17a139.79,139.79,0,0,1,13.62,5.62l.32.21.05,0,.11,0c1,.46,1.93.9,2.84,1.34,1.58.77,3.23,1.6,4.92,2.46q7.6,4,10.07,6.53,3.16,2.38,9.24,13l0,0,1.81,1.92a123.57,123.57,0,0,1,15.38,19.7Z"/><path class="cls-2" d="M2210.27,1724.5q-85.08,71.18-244.9,179-84.24,57-215.89,139.07,25.86-16.72,53.43-34.69,185.58-121.28,201.25-136.83l-1.13.54q-30.32,15.5-136.75,79.88-189.49,114.93-365.85,223.38-43.17,26.33-81.88,49.46-91.93,54.93-158.29,92.05-57.67,32.57-104,57.34-79.08,41.73-109,56-41.22,20.23-75.13,35.81L813,2537.64q118.88-38,257.64-101.83-87.15,45-154.52,74.77-196.54,86.28-278.43,44.25l-5.9-2.49Q652.6,2650,841.67,2584.5q248.67-86.16,613.21-307.55,221.94-135.61,403.85-260.88,125.14-85.72,225.38-160.91,49.54-37.22,89.52-69.51l41.8-34.73q110.71-96.95,136.24-143.81,18.82-32,21.5-50.49,9.14-40.27-.17-60.89Q2389.1,1580.35,2210.27,1724.5Z"/><path class="cls-2" d="M816.28,2226.52c3.11-1.89,4.34-5.52,2.77-8.11h0c-1.57-2.59-5.37-3.15-8.47-1.26s-4.34,5.52-2.76,8.11h0C809.39,2227.85,813.18,2228.42,816.28,2226.52Z"/><path class="cls-2" d="M806.74,2339.59c3.1-1.89,4.34-5.52,2.76-8.11h0c-1.58-2.59-5.37-3.15-8.48-1.26s-4.34,5.52-2.76,8.11h0C799.84,2340.92,803.63,2341.48,806.74,2339.59Z"/><path class="cls-2" d="M1190,1991.14c3.11-1.9,4.35-5.53,2.77-8.11h0c-1.58-2.59-5.38-3.15-8.48-1.26s-4.34,5.53-2.76,8.11h0C1183.15,1992.47,1186.94,1993,1190,1991.14Z"/><path class="cls-2" d="M1106.09,2159.16c3.1-1.89,4.34-5.52,2.76-8.11h0c-1.58-2.58-5.37-3.15-8.47-1.25s-4.34,5.52-2.77,8.11h0C1099.19,2160.49,1103,2161.05,1106.09,2159.16Z"/><path class="cls-2" d="M1149.43,2087.25c3.1-1.9,4.34-5.53,2.76-8.11h0c-1.58-2.59-5.37-3.15-8.47-1.26s-4.34,5.53-2.77,8.11h0C1142.53,2088.57,1146.33,2089.14,1149.43,2087.25Z"/><path class="cls-2" d="M1558.84,1770.14c3.1-1.89,4.34-5.52,2.76-8.11h0c-1.58-2.59-5.37-3.16-8.48-1.26s-4.34,5.52-2.76,8.11h0C1551.94,1771.47,1555.74,1772,1558.84,1770.14Z"/><path class="cls-2" d="M1476.47,1943.51c3.1-1.89,4.34-5.52,2.76-8.11h0c-1.58-2.59-5.37-3.15-8.47-1.26s-4.35,5.52-2.77,8.11h0C1469.57,1944.84,1473.37,1945.4,1476.47,1943.51Z"/><path class="cls-2" d="M1978.87,1558.76c3.1-1.9,4.34-5.53,2.76-8.11h0c-1.58-2.59-5.37-3.15-8.47-1.26s-4.34,5.53-2.77,8.11h0C1972,1560.09,1975.77,1560.65,1978.87,1558.76Z"/><path class="cls-2" d="M1878.5,1691.79c3.1-1.89,4.34-5.53,2.76-8.11h0c-1.58-2.58-5.37-3.15-8.48-1.26s-4.34,5.53-2.76,8.12h0C1871.6,1693.12,1875.4,1693.68,1878.5,1691.79Z"/><path class="cls-2" d="M1195.3,1918.72c3-1.82,4.19-5.32,2.67-7.81h0c-1.52-2.49-5.17-3-8.16-1.21s-4.18,5.32-2.66,7.81h0C1188.66,1920,1192.32,1920.54,1195.3,1918.72Z"/><path class="cls-2" d="M859.56,2256.3c3-1.82,4.18-5.32,2.66-7.81h0c-1.52-2.49-5.17-3-8.16-1.21s-4.18,5.32-2.66,7.81h0C852.92,2257.58,856.57,2258.12,859.56,2256.3Z"/><path class="cls-2" d="M761.57,2311.84c3-1.83,4.18-5.32,2.66-7.82h0c-1.52-2.49-5.18-3-8.17-1.21s-4.18,5.32-2.66,7.81h0C754.92,2313.12,758.58,2313.66,761.57,2311.84Z"/><path class="cls-2" d="M1474.92,1865.68c3-1.82,4.18-5.32,2.66-7.81h0c-1.52-2.49-5.17-3-8.16-1.21s-4.18,5.32-2.66,7.81h0C1468.28,1867,1471.93,1867.51,1474.92,1865.68Z"/><path class="cls-2" d="M1359.27,2053.63c3-1.83,4.18-5.32,2.67-7.81h0c-1.52-2.49-5.17-3-8.16-1.21s-4.18,5.32-2.66,7.81h0C1352.63,2054.91,1356.28,2055.45,1359.27,2053.63Z"/><path class="cls-2" d="M1776,1837.7c3-1.83,4.18-5.32,2.66-7.81h0c-1.51-2.49-5.17-3-8.16-1.21s-4.18,5.32-2.66,7.81h0C1769.31,1839,1773,1839.52,1776,1837.7Z"/><path class="cls-2" d="M1883.31,1635.4c3-1.82,4.18-5.32,2.66-7.81h0c-1.52-2.5-5.17-3-8.16-1.22s-4.18,5.32-2.66,7.82h0C1876.67,1636.68,1880.32,1637.22,1883.31,1635.4Z"/><path class="cls-2" d="M2277.53,1516c3-1.82,4.18-5.32,2.67-7.81h0c-1.52-2.49-5.17-3-8.16-1.21s-4.18,5.32-2.66,7.81h0C2270.89,1517.32,2274.54,1517.87,2277.53,1516Z"/><path class="cls-2" d="M1975.46,1722c3-1.83,4.18-5.32,2.66-7.81h0c-1.52-2.49-5.17-3-8.16-1.21s-4.18,5.32-2.66,7.81h0C1968.82,1723.31,1972.47,1723.85,1975.46,1722Z"/><path class="cls-2" d="M1785.84,1763c3-1.82,4.18-5.32,2.66-7.81h0c-1.52-2.49-5.18-3-8.17-1.21s-4.18,5.32-2.66,7.81h0C1779.19,1764.32,1782.85,1764.86,1785.84,1763Z"/><path class="cls-2" d="M1101.26,2056.43c1.78-1.08,2.48-3.16,1.58-4.64h0c-.9-1.48-3.07-1.8-4.84-.72s-2.48,3.16-1.58,4.63h0C1097.32,2057.19,1099.49,2057.51,1101.26,2056.43Z"/><path class="cls-2" d="M1140.89,1983.84c1.77-1.08,2.48-3.16,1.58-4.64h0c-.9-1.48-3.06-1.8-4.84-.72s-2.48,3.16-1.58,4.63h0C1137,1984.6,1139.12,1984.92,1140.89,1983.84Z"/><path class="cls-2" d="M1183.61,2053.4c-1.78,1.08-2.48,3.16-1.58,4.64h0c.9,1.48,3.07,1.8,4.84.72s2.48-3.16,1.58-4.64h0C1187.55,2052.64,1185.38,2052.32,1183.61,2053.4Z"/><path class="cls-2" d="M1507.6,1754c1.78-1.08,2.48-3.16,1.58-4.63h0c-.9-1.48-3.07-1.8-4.84-.72s-2.48,3.16-1.58,4.64h0C1503.66,1754.76,1505.83,1755.08,1507.6,1754Z"/><path class="cls-2" d="M1590.74,1660.8c1.77-1.08,2.48-3.15,1.58-4.63h0c-.91-1.47-3.07-1.8-4.85-.71s-2.48,3.15-1.58,4.63h0C1586.8,1661.56,1589,1661.88,1590.74,1660.8Z"/><path class="cls-2" d="M1548.14,1844.13c1.78-1.08,2.48-3.16,1.58-4.64h0c-.9-1.48-3.07-1.8-4.84-.72s-2.48,3.16-1.58,4.64h0C1544.2,1844.89,1546.37,1845.21,1548.14,1844.13Z"/><path class="cls-2" d="M1897.25,1733.54h0c.9,1.47,3.07,1.8,4.84.72s2.48-3.16,1.58-4.64h0c-.9-1.48-3.06-1.8-4.84-.72S1896.35,1732.06,1897.25,1733.54Z"/><path class="cls-2" d="M1948.87,1598.75c1.77-1.08,2.48-3.16,1.58-4.64h0c-.9-1.48-3.07-1.8-4.84-.72s-2.48,3.16-1.58,4.63h0C1944.93,1599.51,1947.1,1599.83,1948.87,1598.75Z"/><path class="cls-2" d="M2019.11,1466.1c1.77-1.08,2.48-3.16,1.58-4.64h0c-.9-1.48-3.07-1.8-4.84-.72s-2.48,3.16-1.58,4.63h0C2015.17,1466.86,2017.33,1467.18,2019.11,1466.1Z"/><path class="cls-2" d="M1879.89,1614.33c1.78-1.08,2.48-3.15,1.58-4.63h0c-.9-1.47-3.07-1.8-4.84-.72s-2.48,3.16-1.58,4.64h0C1876,1615.09,1878.12,1615.41,1879.89,1614.33Z"/><path class="cls-2" d="M1438.76,1920.22c1.77-1.08,2.48-3.16,1.58-4.64h0c-.91-1.48-3.07-1.8-4.85-.72s-2.48,3.16-1.58,4.63h0C1434.82,1921,1437,1921.3,1438.76,1920.22Z"/><path class="cls-2" d="M831.88,2184c1.77-1.08,2.48-3.15,1.58-4.63h0c-.9-1.48-3.07-1.8-4.84-.72s-2.48,3.15-1.58,4.63h0C827.94,2184.79,830.11,2185.12,831.88,2184Z"/><path class="cls-2" d="M797.23,2257.21c1.77-1.08,2.47-3.15,1.57-4.63h0c-.9-1.48-3.07-1.8-4.84-.72s-2.48,3.15-1.58,4.63h0C793.28,2258,795.45,2258.3,797.23,2257.21Z"/><path class="cls-2" d="M870.17,2184.15c1.78-1.08,2.48-3.15,1.58-4.63h0c-.9-1.47-3.07-1.8-4.84-.71s-2.48,3.15-1.58,4.63h0C866.23,2184.91,868.4,2185.23,870.17,2184.15Z"/><path class="cls-2" d="M1050.27,2165.43c1.77-1.08,2.48-3.16,1.58-4.64h0c-.9-1.48-3.07-1.8-4.84-.72s-2.48,3.16-1.58,4.63h0C1046.33,2166.19,1048.49,2166.51,1050.27,2165.43Z"/><path class="cls-2" d="M1194.56,2101.56c1.77-1.08,2.48-3.15,1.58-4.63h0c-.91-1.47-3.07-1.8-4.85-.72s-2.48,3.16-1.57,4.64h0C1190.62,2102.32,1192.79,2102.64,1194.56,2101.56Z"/><path class="cls-3" d="M2400.8,2494.22a83.38,83.38,0,0,0,.73-14.36c-.45-4.52-.87-7-1.23-7.35a11.33,11.33,0,0,0-1.67-3.28l-.21-.13a8.35,8.35,0,0,0-2.24-1l-.55,5.08-1.11,4.87-.45,1.26q-5.39-80.09-12.27-86.18-13.92-36.42-19.83-45.91-20.47-39.16-37.95-62.45a207.62,207.62,0,0,0-14.93-17.56q-17.72-15.93-34.26-31.38l-25.53-32.37q1.29,5.43,2.53,10.56-7.7-7.4-15.12-14.7-56.45-56.68-74.57-78.59-25.07-24.6-40.08-38.23-51.67-47.37-100.18-78.18a173,173,0,0,0-45-32.79l-34.74-14.09c-.55-2-1.1-4.09-1.66-6.16l-.48-1.45-48.8-13.8a329.57,329.57,0,0,0-42.59-51.74l-.37-.72.29.63q-29.55-29.58-69.82-57.43l-33.82-21.94-7.19-4.4q-48.59-29.62-68.52-37.36-32.84-15.24-86.25-37.17l-3.9-6.94-14-.37q-26.51-10.74-57.51-22.95l-137.08-93.25q-46.58-27.8-82.92-43.34a295.6,295.6,0,0,0-31.4-25l-72.16-4.84a163.51,163.51,0,0,0-26.31-2.75q-27.57-1.38-41.55,6.93h0a407.4,407.4,0,0,0-35.2-35.45q-.17-3.32-51.65-35.7l-2.85-1.75q-2.19-1.59-5.63-3.69-15.85-9.66-58.42-30.23-40.38-17.77-74.56-22.66-113-8.85-188.61,13-21.37,2.94-48.76,23.06a127.93,127.93,0,0,1,4.59-13.37q-29.21,15.5-41.27,45.33-4.08,4-8.26,8.37-11.18,35.13-5.05,48.32,3.54,20,14.05,45.06a493.5,493.5,0,0,0,28,55.34q12.09,15.7,28.65,33.93,9.48,9.88,19,19.57,11.63,13.29,35.79,35.49,56.94,55,116.13,103.23l45.17,33q23.49,19,49.61,39.9,84,62.82,183.8,126.81,19.65,13,38,25.2l5.86,5.29a821.88,821.88,0,0,0,75.18,54.47q18.94,12.24,29.09,18l7,4,41.21,31q56.39,39.69,117.15,84.89,19.49,13.46,37.91,24.69,12.57,7.66,24.64,14.29,24.12,13.68,63.22,32.05,11.43,5.38,32.35,14.7l143.27,91.88q120.56,73.07,180.12,96.17,46.29,17.05,84.14,30.73,9.58,5.05,19.4,10.2,35.94,14.57,65.23,25.06,63.07,33.28,136.78,48.21,53.94,8.41,83.26,3.5l9.54-1.34,4-2.18a14.85,14.85,0,0,0,4.19-1q17.8-2.67,29.78-7.66l10.51-5.58q9-6.16,12.26-14.66l1.76-9.08q3.75-.22,11.1-22.4,4.37-9.35,10.61-31.81a153.35,153.35,0,0,0,2.76-29.58l-1.11-10.89A37.55,37.55,0,0,0,2400.8,2494.22Zm-606-239.88h0l.92,2.21-5.9-4.14,0,0Z"/><path class="cls-2" d="M596.48,1464.72c-34.54,56.65-23.73,155.79,242.68,371.49,154.73,125.28,398.51,292.24,643.68,441.73,248.91,151.76,499.26,285.5,659.33,339.29,148.14,49.79,225.7,33.14,257.86-19.62,35.11-57.57,10.59-152-11.82-215.66-43.3-123-88.52-156.62-133.67-189.45-.35-.26-.71-.5-1.07-.72s-.76-.43-1.15-.63l-.53-.44q-11.23-8.88-19.49-14.68-1.43-2.12-2.88-4.21c-8.49-12.26-17.68-24.31-38.47-48.07s-55.51-57.25-93.57-87.8a844.79,844.79,0,0,0-124.07-82.45c-31.61-17.27-64.86-32.8-90.73-43-.94-1.4-1.89-2.77-2.82-4.08-5.6-7.81-11.09-14.19-30.35-31.22s-53.9-44-90.86-68.41a872.73,872.73,0,0,0-90.3-52.06q-15.88-9.15-27.1-14.47-50.73-24.54-63.29-29.32-9.4-3.75-23.13-8.6c-2.76-1.35-5.42-2.6-8-3.71a147.8,147.8,0,0,0-23.68-7.9q-7.81-9.4-16.55-18.54c-8.68-9.05-18.75-18.54-62.1-50.26a748.86,748.86,0,0,0-94.45-59.34c-1.67-1-3.34-1.91-5-2.86q-62.57-36.54-152.26-56.93-61.93-9.81-87.65-4.94-8.67-8.74-17.92-16.75c-7.93-6.87-16.35-13.47-33.07-24.53a373.47,373.47,0,0,0-55.46-30A517.6,517.6,0,0,0,932.87,1403c-23.59-6.8-49-12.5-65.55-14.41-6.8-.78-13.39-1.26-19.8-1.48a336.24,336.24,0,0,0-42-1.53A154.45,154.45,0,0,0,740.1,1398a37.31,37.31,0,0,0-5.71-4.09l-.12-.08q-2.74-1.63-9.28-3a97.32,97.32,0,0,0-16.28,1.9c-3.09.85-6.07,1.69-9,2.53-21.47,2.32-44.25,8.83-70.7,32.21-2.18,1.6-4.44,3.31-6.81,5.15l.4.78q-4.21,4.07-8.56,8.73A141.47,141.47,0,0,0,596.48,1464.72ZM801,1477.15q-16-16.2-42.75-56.82,20.19-6.09,29.75-6.76,24.3-1.33,55.79,3,26.64,5.17,33.17,7.77,20.61,9.81,28.24,18.63,8.7,9,21.17,27.87,39.21,65.28,43.62,74.77a353.1,353.1,0,0,1,17.87,44.49l11,47.17q.48,3.21-9.37.16l-27-14.18q-4.62-3.26-9.09-6.44c-2-1.76-4-3.55-6.08-5.38q-28.92-25.92-103.94-97.33Q807.86,1483.81,801,1477.15Zm335.29,57a436.85,436.85,0,0,1,115.39,18.67q56.91,31.71,87.38,81.19,22.92,37,36.69,82.3,21.13,73.17,27.76,110.44,0,17.51-3.37,26.81a56.21,56.21,0,0,1-7.1,14.23c-1.53,1.44-3,2.8-4.28,4.09a37.41,37.41,0,0,1-13.25-2.19,18.93,18.93,0,0,1-3.17-1.48q-11-8.09-24.37-25.68-28.08-34.9-90.92-123.73l-6.72-10.74q-27.37-43.83-50-78.92T1160,1567.66C1150.93,1554.3,1142.67,1542.66,1136.3,1534.13Zm451.84,286.47c-14.14-35.19-31.05-78-37.45-90.06,2.08.91,4.7,2,7.88,3.38q22.71,7.63,32,12.19l58.63,29.57q47.13,34.6,68.48,72.1a123.93,123.93,0,0,1,12,36.87q-1.79,42.25,19.77,134.39l1.41,50.58c-1.4-.3-3.29-1.54-5.66-3.75q-13.35-9.55-56-59.11-18.33-22.83-28.69-37.13L1636.09,1933q-5-9.76-12.54-27Q1610,1875.11,1588.14,1820.6Zm363.61,241.86c-10.42-25.88-22.48-56.52-32.47-80.59-5.5-13.27-9.88-23-13.71-30.9q55.83,28.63,81.08,47.4,30,24.93,39.54,36.29a272.56,272.56,0,0,1,24.65,30.46l21.3,40.81,10.6,23.78q7.83,18.42,14,52,1.55,12.78,2.43,24.29.15,16.41-.38,38.35-3.33,26-14.33,21.48-18.31-9.21-46.14-43.37-14.17-17.11-30.81-40.08c-4.26-7.15-7.94-13.78-11.23-19.89-4.92-9.16-10.66-20.52-18-36.79S1962.16,2088.34,1951.75,2062.46Zm354,314.47c-7.7-29.32-16.77-63.15-24.07-88.32-9-31.07-14.94-48.49-19.69-60.11q3.77,3.81,4.25,5,11.17,13,18.64,32.91,5.4,15.24,6.94,24.6Zm-1687-898.61a123.57,123.57,0,0,1,15.38-19.7l1.81-1.92,0,0q6.08-10.63,9.24-13,2.46-2.57,10.07-6.53c1.69-.86,3.34-1.69,4.92-2.46.91-.44,1.85-.88,2.84-1.34l.11,0,0,0,.32-.21a139.79,139.79,0,0,1,13.62-5.62q36.64-10.48,45.17-7.17a2.58,2.58,0,0,1,1.32,1.54,22.12,22.12,0,0,1,4.73,3.1q2.18,1.93,3.84,3.74,13.43,17.57,24.58,30.88,1.83,2.79,7.76,8,19.27,18,33.55,31.08,17.5,14.6,30.51,26.82l14.61,11.71,49,42,5.39,5,.09.06q39.12,36.23,43.31,39.43,23.88,19.41,37.36,27.77c1,.67,2,1.25,2.79,1.75l0,0,0,0c1.16.7,2.14,1.24,2.93,1.62,1.21.6,2.36,1.16,3.47,1.69q13.8,6.95,20.22,8h.15l.73-.08c.41,0,.82-.07,1.21-.12l1-.1-.06,0c3.38-.57,5.89-1.76,7.52-3.6q7-11.82-4.47-49.34-16.4-54.71-31.83-83.33-13.9-26.16-23.13-40.71-6.72-10.93-38.11-54.11c-.9-1.51-1.06-2.37-.48-2.56q21.35,3.23,67,21,19.7,8.3,45.37,24.37,9.75,6.55,19,14l64,54.9c1,1.46,2.11,3,3.22,4.55,7.87,11.22,19.29,27.54,32.64,46.68s28.52,41.14,45.5,66c6.22,9.1,12.68,18.58,19,27.87q24.82,42.66,67,101.58,93.72,122.07,115.4,110.56,21.42-14,27.42-51.35,4.75-25.4-3.09-78.19-14.1-75.9-49.08-134.18a207.72,207.72,0,0,0-33.33-48.85q14.1,7.44,28.11,15.86,87.14,53.88,113.43,85.79,36.33,37.57,57.19,73.42c11.57,25.77,28.1,63.92,41.87,94.53q20.94,46.56,33.26,70.1c8.24,15.75,14.08,24.6,19.25,31.39s14.61,20.21,26.36,35.62q7.27,9.54,15.75,20.09,10.49,15.57,56.93,71.12,11.24,13.7,17.35,16.29,6.39,4.65,17-6.32,6.63-6.54,6.84-20.38a281.09,281.09,0,0,0-4.36-47.88q-2.94-32.48-9.76-70,.26-82.77-4.22-84.83-11.34-32.67-29.91-57.69,22.17,12.84,37.68,23.36,45,29.38,75.39,54.57c6.51,5.91,10.88,10.08,12.12,11.5a176.71,176.71,0,0,1,13.4,18.29c5.2,7.9,11,17.5,17.27,28.83s12.75,23.8,26.5,55.78,26,59.32,36.57,82,19.47,40.57,26.75,53.86c5,9.1,9.1,15.87,13.2,22.48a397.58,397.58,0,0,0,34.79,53.85q71.15,86.63,81.61,74.43,21.2-25.47,10.63-133.09a229.64,229.64,0,0,0-4.67-32.9,4.28,4.28,0,0,0,1.34,1.3c1.78,1.08,3.94.76,4.85-.72h0c.9-1.48.19-3.56-1.58-4.64s-3.94-.76-4.84.72h0a2.77,2.77,0,0,0-.32.87q-2.22-9.69-5.3-19.12-2.45-10.16-5.73-20.65-7.34-14.19-14.26-26.74,21.69,17,45.43,37a647.24,647.24,0,0,1,80.8,87.19,658.53,658.53,0,0,1,40.83,59.14c5.9,13.9,15.18,39.61,35,100.15,30.34,92.67,31.88,96.82,34,101.69q2,4.59,4.76,10,.72,1.8,1.47,3.57,7.28,15,14.34,27.13,2.63,4.14,4,2.33,1.83-5.67-.12-20.43l-7.66-36.61a710.13,710.13,0,0,0-13.86-101.15q-6.45-38.37-16.39-64.71c20.34,25.6,40.68,62,61.05,119.82,22.79,64.75,43,149.51,13.23,198.29h0c-24.16,39.63-85.56,60.41-230.48,11.71-157.54-52.95-405.78-185.6-653-336.37C1250.63,2110.85,1008,1944.78,853.89,1820,587.28,1604.15,594,1518.93,618.79,1478.32Z"/><path class="cls-2" d="M789.73,1724.5q85.08,71.18,244.9,179,84.24,57,215.89,139.07-25.86-16.72-53.43-34.69-185.58-121.28-201.25-136.83l1.13.54q30.31,15.5,136.75,79.88,189.49,114.93,365.85,223.38,43.17,26.33,81.88,49.46,91.93,54.93,158.29,92.05,57.67,32.57,104,57.34,79.08,41.73,109,56,41.22,20.23,75.13,35.81L2187,2537.64q-118.87-38-257.64-101.83,87.15,45,154.52,74.77,196.55,86.28,278.43,44.25l5.9-2.49q-20.82,97.69-209.89,32.16-248.67-86.16-613.21-307.55-221.94-135.61-403.85-260.88-125.15-85.72-225.38-160.91-49.54-37.22-89.52-69.51l-41.8-34.73Q673.86,1654,648.33,1607.11q-18.83-32-21.5-50.49-9.14-40.27.17-60.89Q610.91,1580.35,789.73,1724.5Z"/><path class="cls-2" d="M2183.72,2226.52c-3.11-1.89-4.34-5.52-2.77-8.11h0c1.57-2.59,5.37-3.15,8.47-1.26s4.34,5.52,2.76,8.11h0C2190.61,2227.85,2186.82,2228.42,2183.72,2226.52Z"/><path class="cls-2" d="M2193.26,2339.59c-3.1-1.89-4.34-5.52-2.76-8.11h0c1.58-2.59,5.37-3.15,8.48-1.26s4.34,5.52,2.76,8.11h0C2200.16,2340.92,2196.37,2341.48,2193.26,2339.59Z"/><path class="cls-2" d="M1810,1991.14c-3.11-1.9-4.35-5.53-2.77-8.11h0c1.58-2.59,5.38-3.15,8.48-1.26s4.34,5.53,2.76,8.11h0C1816.85,1992.47,1813.06,1993,1810,1991.14Z"/><path class="cls-2" d="M1893.91,2159.16c-3.1-1.89-4.34-5.52-2.76-8.11h0c1.58-2.58,5.37-3.15,8.47-1.25s4.34,5.52,2.77,8.11h0C1900.81,2160.49,1897,2161.05,1893.91,2159.16Z"/><path class="cls-2" d="M1850.57,2087.25c-3.1-1.9-4.34-5.53-2.76-8.11h0c1.58-2.59,5.37-3.15,8.47-1.26s4.35,5.53,2.77,8.11h0C1857.47,2088.57,1853.67,2089.14,1850.57,2087.25Z"/><path class="cls-2" d="M1441.16,1770.14c-3.1-1.89-4.34-5.52-2.76-8.11h0c1.58-2.59,5.37-3.16,8.48-1.26s4.34,5.52,2.76,8.11h0C1448.06,1771.47,1444.26,1772,1441.16,1770.14Z"/><path class="cls-2" d="M1523.53,1943.51c-3.1-1.89-4.34-5.52-2.76-8.11h0c1.58-2.59,5.37-3.15,8.47-1.26s4.35,5.52,2.77,8.11h0C1530.43,1944.84,1526.63,1945.4,1523.53,1943.51Z"/><path class="cls-2" d="M1021.13,1558.76c-3.1-1.9-4.34-5.53-2.76-8.11h0c1.58-2.59,5.37-3.15,8.47-1.26s4.34,5.53,2.77,8.11h0C1028,1560.09,1024.23,1560.65,1021.13,1558.76Z"/><path class="cls-2" d="M1121.5,1691.79c-3.1-1.89-4.34-5.53-2.76-8.11h0c1.58-2.58,5.37-3.15,8.48-1.26s4.34,5.53,2.76,8.12h0C1128.4,1693.12,1124.6,1693.68,1121.5,1691.79Z"/><path class="cls-2" d="M1804.7,1918.72c-3-1.82-4.19-5.32-2.67-7.81h0c1.52-2.49,5.17-3,8.16-1.21s4.18,5.32,2.66,7.81h0C1811.34,1920,1807.68,1920.54,1804.7,1918.72Z"/><path class="cls-2" d="M2140.44,2256.3c-3-1.82-4.18-5.32-2.66-7.81h0c1.52-2.49,5.17-3,8.16-1.21s4.18,5.32,2.66,7.81h0C2147.08,2257.58,2143.43,2258.12,2140.44,2256.3Z"/><path class="cls-2" d="M2238.43,2311.84c-3-1.83-4.18-5.32-2.66-7.82h0c1.52-2.49,5.18-3,8.17-1.21s4.18,5.32,2.66,7.81h0C2245.08,2313.12,2241.42,2313.66,2238.43,2311.84Z"/><path class="cls-2" d="M1525.08,1865.68c-3-1.82-4.18-5.32-2.66-7.81h0c1.52-2.49,5.17-3,8.16-1.21s4.18,5.32,2.66,7.81h0C1531.72,1867,1528.07,1867.51,1525.08,1865.68Z"/><path class="cls-2" d="M1640.73,2053.63c-3-1.83-4.18-5.32-2.67-7.81h0c1.52-2.49,5.17-3,8.16-1.21s4.18,5.32,2.66,7.81h0C1647.37,2054.91,1643.72,2055.45,1640.73,2053.63Z"/><path class="cls-2" d="M1224,1837.7c-3-1.83-4.18-5.32-2.66-7.81h0c1.51-2.49,5.17-3,8.16-1.21s4.18,5.32,2.66,7.81h0C1230.69,1839,1227,1839.52,1224,1837.7Z"/><path class="cls-2" d="M1116.69,1635.4c-3-1.82-4.18-5.32-2.66-7.81h0c1.52-2.5,5.17-3,8.16-1.22s4.18,5.32,2.66,7.82h0C1123.33,1636.68,1119.68,1637.22,1116.69,1635.4Z"/><path class="cls-2" d="M722.47,1516c-3-1.82-4.18-5.32-2.67-7.81h0c1.52-2.49,5.17-3,8.16-1.21s4.18,5.32,2.66,7.81h0C729.11,1517.32,725.46,1517.87,722.47,1516Z"/><path class="cls-2" d="M1024.54,1722c-3-1.83-4.18-5.32-2.66-7.81h0c1.52-2.49,5.17-3,8.16-1.21s4.18,5.32,2.66,7.81h0C1031.18,1723.31,1027.53,1723.85,1024.54,1722Z"/><path class="cls-2" d="M1214.16,1763c-3-1.82-4.18-5.32-2.66-7.81h0c1.52-2.49,5.18-3,8.17-1.21s4.18,5.32,2.66,7.81h0C1220.81,1764.32,1217.15,1764.86,1214.16,1763Z"/><path class="cls-2" d="M1898.74,2056.43c-1.78-1.08-2.48-3.16-1.58-4.64h0c.9-1.48,3.07-1.8,4.84-.72s2.48,3.16,1.58,4.63h0C1902.68,2057.19,1900.51,2057.51,1898.74,2056.43Z"/><path class="cls-2" d="M1859.11,1983.84c-1.77-1.08-2.48-3.16-1.58-4.64h0c.9-1.48,3.06-1.8,4.84-.72s2.48,3.16,1.58,4.63h0C1863.05,1984.6,1860.88,1984.92,1859.11,1983.84Z"/><path class="cls-2" d="M1816.39,2053.4c1.78,1.08,2.48,3.16,1.58,4.64h0c-.9,1.48-3.07,1.8-4.84.72s-2.48-3.16-1.58-4.64h0C1812.45,2052.64,1814.62,2052.32,1816.39,2053.4Z"/><path class="cls-2" d="M1492.4,1754c-1.78-1.08-2.48-3.16-1.58-4.63h0c.9-1.48,3.07-1.8,4.84-.72s2.48,3.16,1.58,4.64h0C1496.34,1754.76,1494.17,1755.08,1492.4,1754Z"/><path class="cls-2" d="M1409.26,1660.8c-1.77-1.08-2.48-3.15-1.58-4.63h0c.91-1.47,3.07-1.8,4.85-.71s2.48,3.15,1.58,4.63h0C1413.2,1661.56,1411,1661.88,1409.26,1660.8Z"/><path class="cls-2" d="M1451.86,1844.13c-1.77-1.08-2.48-3.16-1.58-4.64h0c.9-1.48,3.07-1.8,4.84-.72s2.48,3.16,1.58,4.64h0C1455.8,1844.89,1453.63,1845.21,1451.86,1844.13Z"/><path class="cls-2" d="M1102.75,1733.54h0c-.9,1.47-3.07,1.8-4.84.72s-2.48-3.16-1.58-4.64h0c.9-1.48,3.06-1.8,4.84-.72S1103.65,1732.06,1102.75,1733.54Z"/><path class="cls-2" d="M1051.13,1598.75c-1.77-1.08-2.48-3.16-1.58-4.64h0c.9-1.48,3.07-1.8,4.84-.72s2.48,3.16,1.58,4.63h0C1055.07,1599.51,1052.9,1599.83,1051.13,1598.75Z"/><path class="cls-2" d="M980.89,1466.1c-1.77-1.08-2.48-3.16-1.58-4.64h0c.9-1.48,3.07-1.8,4.84-.72s2.48,3.16,1.58,4.63h0C984.83,1466.86,982.67,1467.18,980.89,1466.1Z"/><path class="cls-2" d="M1120.11,1614.33c-1.78-1.08-2.48-3.15-1.58-4.63h0c.9-1.47,3.07-1.8,4.84-.72s2.48,3.16,1.58,4.64h0C1124.05,1615.09,1121.88,1615.41,1120.11,1614.33Z"/><path class="cls-2" d="M1561.24,1920.22c-1.77-1.08-2.48-3.16-1.58-4.64h0c.9-1.48,3.06-1.8,4.84-.72s2.48,3.16,1.58,4.63h0C1565.18,1921,1563,1921.3,1561.24,1920.22Z"/><path class="cls-2" d="M2168.12,2184c-1.77-1.08-2.48-3.15-1.58-4.63h0c.9-1.48,3.07-1.8,4.84-.72s2.48,3.15,1.58,4.63h0C2172.06,2184.79,2169.89,2185.12,2168.12,2184Z"/><path class="cls-2" d="M2202.77,2257.21c-1.77-1.08-2.47-3.15-1.57-4.63h0c.9-1.48,3.07-1.8,4.84-.72s2.48,3.15,1.58,4.63h0C2206.72,2258,2204.55,2258.3,2202.77,2257.21Z"/><path class="cls-2" d="M2129.83,2184.15c-1.78-1.08-2.48-3.15-1.58-4.63h0c.9-1.47,3.07-1.8,4.84-.71s2.48,3.15,1.58,4.63h0C2133.77,2184.91,2131.6,2185.23,2129.83,2184.15Z"/><path class="cls-2" d="M1949.73,2165.43c-1.77-1.08-2.48-3.16-1.58-4.64h0c.9-1.48,3.07-1.8,4.84-.72s2.48,3.16,1.58,4.63h0C1953.67,2166.19,1951.51,2166.51,1949.73,2165.43Z"/><path class="cls-2" d="M1805.44,2101.56c-1.77-1.08-2.48-3.15-1.58-4.63h0c.91-1.47,3.07-1.8,4.85-.72s2.48,3.16,1.57,4.64h0C1809.38,2102.32,1807.21,2102.64,1805.44,2101.56Z"/><rect class="cls-3" x="664.18" y="1792.23" width="1671.65" height="305.8"/><path class="cls-2" d="M2335.82,2112.21H664.18c-9.12,0-16.5-6.35-16.5-14.17s7.38-14.18,16.5-14.18H2335.82c9.12,0,16.5,6.35,16.5,14.18S2344.94,2112.21,2335.82,2112.21Z"/><path class="cls-2" d="M2335.82,1806.4H664.18c-9.12,0-16.5-6.34-16.5-14.17s7.38-14.17,16.5-14.17H2335.82c9.12,0,16.5,6.35,16.5,14.17S2344.94,1806.4,2335.82,1806.4Z"/><path class="cls-2" d="M880.58,2046.44a29.18,29.18,0,0,1-15.85-4.34q-6.91,4.34-12.81,4.34a38.22,38.22,0,0,1-9.69-1,24.1,24.1,0,0,1-6.63-2.78q-5.83-3.51-5.83-8.8a7.79,7.79,0,0,1,1.49-4.75,12,12,0,0,0,7.59,2.31q12.06,0,16.66-10.3v-66.26q0-6.09-2.57-9.35-4.07-5.28-14-10,9.07-4.2,11.93-7.32a17.49,17.49,0,0,0,4.6-11.79v-57.18q-4.6-10.42-16.66-10.43a12.09,12.09,0,0,0-7.59,2.3,7.64,7.64,0,0,1-1.49-4.67,8.68,8.68,0,0,1,1.56-5,13.32,13.32,0,0,1,4.27-3.93,27,27,0,0,1,14.29-3.79,26.42,26.42,0,0,1,14.84,4.47,28.69,28.69,0,0,1,15.71-4.47,27.75,27.75,0,0,1,16.53,5,76.43,76.43,0,0,1,29.95-6.37,117.77,117.77,0,0,1,27.17,2.92,91.47,91.47,0,0,1,22.15,8.2q21.54,11.37,26.83,29.53a23.61,23.61,0,0,0,12.87,14.91q-11,7.59-13.55,17.34-5.68,21.42-23,27.91,25.47,7,33.19,33.34,2.72,9.35,12.87,15.31a28.82,28.82,0,0,0-14,17.61,52.58,52.58,0,0,1-12.4,21.21,76.21,76.21,0,0,1-20.66,15.51q-22.77,11.65-51.36,11.65-17.07,0-30.48-6.09A28,28,0,0,1,880.58,2046.44Zm-12.06-38.62q6.78-2.57,7.45-17.75t.82-42q0-26.83-.07-35.7t-.21-14.3q-.4-16-3-19.31a15,15,0,0,0-5-4.4q0,47.15-1.63,53.65-1.89,5.43-9.21,7.73,8.13,2.84,9.21,6.91,1.64,6.49,1.63,47.56Zm62.19-81.16q11.92,0,16.94-5.69,5.28-5.82,5.28-20v-31.3q0-8.26-8.67-14-7.59-5-14-5a30.31,30.31,0,0,0-10.57,1.56,25.21,25.21,0,0,0-7.38,4.26q-6.91,5.7-6.91,13.69v56.5Zm-25.33,81.7a19.53,19.53,0,0,0,7.18,15.59,25.17,25.17,0,0,0,16.53,5.69q9.35,0,15.71-4.07,12.19-8,12.2-18.29v-39.7q0-12.33-8-18.56-6.78-5.3-17.75-5.29H905.38Zm55.28-154.6q4.61,10.31,4.6,30.08,0,29.15-3.79,37.81,5.68-1.1,9.62-11a39.56,39.56,0,0,0,2.24-7.72q.74-4.07,1.22-6.3a12.81,12.81,0,0,1,1.42-3.86q2-3.39,7.32-5.15c-3.62-1.18-5.88-2.44-6.78-3.8q-1.75-2.29-2.84-8.4a56.21,56.21,0,0,0-2.58-10,28.28,28.28,0,0,0-3.25-6.3Q964.45,1854.31,960.66,1853.76Zm5.42,94.17q3.25,7.32,3.25,33.88,0,33.6-2.44,39.43,2.85-.54,5.83-6.91a53.73,53.73,0,0,0,4.2-13.15c.81-4.51,1.37-7.59,1.69-9.21a17.14,17.14,0,0,1,1.42-4.34,12.39,12.39,0,0,1,7.32-5.82q-8.13-2.58-9.55-10.3a101,101,0,0,0-2.78-11.92,31,31,0,0,0-2.85-6.64Q969.61,1948.61,966.08,1947.93Z"/><path class="cls-2" d="M1069.57,2042.78a18.92,18.92,0,0,1-11.45,3.66q-6.43,0-10.3-3.32a9.88,9.88,0,0,1-3.86-7.66q0-4.34,1.36-6.37a18.8,18.8,0,0,0,9.68,2.31q5.76,0,8.68-1.56a24.1,24.1,0,0,0,5.62-4.27l19.24-57,2.71-9.35a28,28,0,0,0,1.22-7.72q0-12.33-11.65-15.72,10.7-4.07,15-8.81,6.77-7.46,10.7-19.65l14.9-50q-4.34-5.83-10.29-5.83a24.55,24.55,0,0,0-11.11,2.57,11,11,0,0,1-1.36-5.48,13.22,13.22,0,0,1,1.29-5.76,14.53,14.53,0,0,1,3.59-4.74q5.14-4.33,14.63-4.34a24,24,0,0,1,16.13,5.69q6.77-5.69,16.87-5.69t16,5.42a32.93,32.93,0,0,1,17.62-5.42q8.94,0,13.88,3.39a10.61,10.61,0,0,1,5,9.21,7.36,7.36,0,0,1-1.62,4.74,12,12,0,0,0-7.32-2.3q-9.09,0-11.79,12.33l17.34,55.42q3.26,10.44,16.26,16.26c2.44,1.08,4.92,2.08,7.46,3q-13.56,4.47-13.55,13.41a15.28,15.28,0,0,0,1.08,6l25.88,69.38q6,6.23,12.06,6.23t9.48-2.3c1,.72,1.49,2.08,1.49,4.06a15.44,15.44,0,0,1-.94,5.49,11.58,11.58,0,0,1-3,4.4q-4.33,4.07-12.73,4.07a24,24,0,0,1-14.64-4.61,28.43,28.43,0,0,1-15.92,4.61A25.85,25.85,0,0,1,1198,2042a23.61,23.61,0,0,1-14.36,4.47q-8.27,0-13.69-3.46a11.62,11.62,0,0,1-5.69-9.82q0-3.79,1.49-4.74a13.88,13.88,0,0,0,7.45,2.3q8,0,11.25-3.25l-10.3-34.55h-73.3l-8.94,29.94q5.55,8.54,13.48,8.54t11.85-2.31a12.81,12.81,0,0,1,1.49,6.71q0,4.28-4.2,7.45t-10.84,3.19a23,23,0,0,1-12.19-3.39,19.11,19.11,0,0,1-11.18,3.39A16.46,16.46,0,0,1,1069.57,2042.78Zm99-68.15-31.44-104.47-30.89,104.47Zm25.88,33.19c1.62,0,2.44-1.8,2.44-5.42a60.39,60.39,0,0,0-2.85-18.43l-5.15-15.85q-5.42-17.88-5.42-22.49-.13-7.59,6.64-10-9.35-1.89-11.38-5.82-.94-1.63-1.56-2.58A19.46,19.46,0,0,1,1176,1925c-.4-.86-.88-2-1.42-3.32s-1.27-3.3-2.17-5.83l-8.4-25.34q-3-9.48-8.81-14.36a7.3,7.3,0,0,0-3.25-1.76q9.08,32.79,11.93,42,19.63,60.44,23.57,71.68Z"/><path class="cls-2" d="M1353.68,2042.24a28.47,28.47,0,0,1-15.31,4.2,24.63,24.63,0,0,1-14.64-4.34q-6.9,4.34-12.73,4.34a37.79,37.79,0,0,1-9.62-1,24.16,24.16,0,0,1-6.64-2.78q-5.84-3.51-5.83-8.8a7.85,7.85,0,0,1,1.49-4.75,12,12,0,0,0,7.59,2.31q12.06,0,16.67-10.3v-66.26q0-10.56-10.57-16l-6-3.11q12-5.55,15-12.06a16.18,16.18,0,0,0,1.5-7.32v-57.18q-4.62-10.42-16.67-10.43a12.09,12.09,0,0,0-7.59,2.3,7.7,7.7,0,0,1-1.49-4.67,8.68,8.68,0,0,1,1.56-5,13.42,13.42,0,0,1,4.27-3.93,26.74,26.74,0,0,1,14.16-3.79,27.4,27.4,0,0,1,14.83,4.34,24.73,24.73,0,0,1,14.7-4.34,27.28,27.28,0,0,1,15.25,4.34,24.69,24.69,0,0,1,14.23-4.34q11.5,0,16.53,7.72a9.78,9.78,0,0,1,1.49,5.15,6.34,6.34,0,0,1-1.63,4.47,11.86,11.86,0,0,0-7.45-2.3q-10.44,0-14,10.16v69.65l62.33-73.85q0-6.09-6.77-6.1a22.24,22.24,0,0,0-11.25,2.58,11.9,11.9,0,0,1-1.49-6.3c0-2.58,1.35-5.08,4.06-7.52s6.48-3.66,11.32-3.66,8.83,1.17,12,3.52a17.28,17.28,0,0,1,10.57-3.52,16.33,16.33,0,0,1,10.43,3.66,15,15,0,0,1,9.35-3.66,25.64,25.64,0,0,1,7.52.88,16.62,16.62,0,0,1,4.81,2.37q4.74,3.52,4.74,7.86t-1.35,6.37a20.65,20.65,0,0,0-6.51-1q-7.46,0-10.9,1.49a56.74,56.74,0,0,0-6.64,3.39,72.63,72.63,0,0,0-6.44,4.33l-6.23,4.61a45.41,45.41,0,0,0-5,4.47l-31,36.45,57,103.79q10.58,19,16.94,21.68a15.85,15.85,0,0,0,6,1,10.58,10.58,0,0,0,6.64-2.31,7.75,7.75,0,0,1,1.49,4.68,8.94,8.94,0,0,1-1.49,4.94,13.62,13.62,0,0,1-3.93,3.93q-5.57,3.79-14.09,3.8a28.5,28.5,0,0,1-15.45-4.34,30.62,30.62,0,0,1-31.43,0,27.91,27.91,0,0,1-15.11,4.34q-8.2,0-12.74-3.73a11.15,11.15,0,0,1-4.54-8.87,7.85,7.85,0,0,1,1.49-4.75,12,12,0,0,0,7.59,2.31q8.54,0,12.6-6.64L1375.49,1941l-12.6,14.77v65.45q3.52,10.15,14,10.16a11.8,11.8,0,0,0,7.45-2.31,6.38,6.38,0,0,1,1.63,4.48,9.38,9.38,0,0,1-1.56,5.14,15.38,15.38,0,0,1-4,4.21,21.6,21.6,0,0,1-12.46,3.52A25.7,25.7,0,0,1,1353.68,2042.24Zm-26.29-34.42q6.78-2.57,7.45-17.75.83-15.16.82-42t-.07-35.7q-.08-8.88-.2-14.3-.41-16-3.05-19.31a15,15,0,0,0-4.95-4.4q0,47.15-1.62,53.65-1.9,5.43-9.22,7.73,8.13,2.84,9.22,6.91,1.62,6.49,1.62,47.56Zm95.53,0c1.08-1.44,1.62-3.57,1.62-6.37q0-9.21-6.37-21l-26.42-54.2-6.09,6.37Z"/><path class="cls-2" d="M1576.27,2046.44a29.18,29.18,0,0,1-15.85-4.34q-6.92,4.34-12.81,4.34a38.08,38.08,0,0,1-9.68-1,24.16,24.16,0,0,1-6.64-2.78q-5.83-3.51-5.83-8.8a7.85,7.85,0,0,1,1.49-4.75,12,12,0,0,0,7.59,2.31q12.06,0,16.66-10.3v-66.26q0-6.22-2.57-9.21-4.07-5-14-9.89,9.22-4.2,11.93-7.45a17.69,17.69,0,0,0,4.6-11.93v-57.18q-4.6-10.42-16.66-10.43a12.09,12.09,0,0,0-7.59,2.3,7.7,7.7,0,0,1-1.49-4.67,8.68,8.68,0,0,1,1.56-5,13.42,13.42,0,0,1,4.27-3.93,27,27,0,0,1,14.29-3.79,26.42,26.42,0,0,1,14.84,4.47,29.43,29.43,0,0,1,16.12-4.47,28,28,0,0,1,16.53,5.28q14.37-5.28,33.2-5.28a91.16,91.16,0,0,1,23.85,2.71l12.06,3.25a17.29,17.29,0,0,0,4.2.54c2.52,0,3.79-1.8,3.79-5.42a19.42,19.42,0,0,0-1-4.6,56.49,56.49,0,0,1,9.62-.68,13.85,13.85,0,0,1,9.89,3.86q4.07,3.87,4.07,11.11t-2.58,10.64a23.06,23.06,0,0,1,3.66,13.21,17.76,17.76,0,0,1-5.28,13.07,21.37,21.37,0,0,1,1.62,7.93,18.82,18.82,0,0,1-1.28,7.05,18.56,18.56,0,0,1-3.19,5.35q-3.8,3.93-7.72,3.93a21.72,21.72,0,0,1-10.3-2.44c1.08-2.17,1.63-5.37,1.63-9.62q0-14.91-7.46-26.15-10.15-15.45-30.48-15.45a35.43,35.43,0,0,0-18.63,5,26.92,26.92,0,0,0-11.72,14.37v52.43a16.86,16.86,0,0,0,8.87,3c2.76,0,4.83,0,6.23-.14a35.61,35.61,0,0,0,4.27-.54A33,33,0,0,0,1629,1924q5.68-2.71,5.69-13.28,0-6-2.85-9.21a11.52,11.52,0,0,1,6.78-1.9q9.08,0,13.14,7.32a11.07,11.07,0,0,1,1.49,5.69,24.15,24.15,0,0,1-1.62,7.72,23.34,23.34,0,0,1,0,30.22,25.39,25.39,0,0,1,1.62,8.33,17.3,17.3,0,0,1-1.49,7.11,16.13,16.13,0,0,1-3.66,5.42,13.78,13.78,0,0,1-9.48,3.8,11.22,11.22,0,0,1-6.78-2.17,21.14,21.14,0,0,0,2.85-11.11q0-12.6-6.91-15.58a37.31,37.31,0,0,0-14-2.44q-7.86,0-12.73,2.84v67.75q7.85,13.82,30.35,13.82,25.47,0,34.68-15.72a74.28,74.28,0,0,0,10.71-38.61,30.62,30.62,0,0,0-1.08-9.22q3.38-3.37,7-3.38a12.2,12.2,0,0,1,5.56,1,14.49,14.49,0,0,1,3.38,2.51,11.22,11.22,0,0,1,3.26,7.45l-.82,6.64a6.29,6.29,0,0,0,1.36,4.2c1.8,1.9,2.71,3.68,2.71,5.35a14.77,14.77,0,0,1-1.63,6,18,18,0,0,1,5.62,5.22,12,12,0,0,1,2.51,7.11q0,7.73-6.5,13.82,2.83,4.07,2.84,11.73a19.82,19.82,0,0,1-4.4,13,14.13,14.13,0,0,1-11.45,5.35,40.2,40.2,0,0,1-7.86-.81,33.36,33.36,0,0,0,.54-6c0-4.15-1.89-6.23-5.69-6.23a33.84,33.84,0,0,0-12.73,2.57q-15,6.11-34.22,6.1t-32.58-5A27.53,27.53,0,0,1,1576.27,2046.44Zm-12.06-38.62q6.78-2.57,7.45-17.75.83-15.16.82-42t-.07-35.7q-.08-8.88-.2-14.3-.4-16-3-19.31a15,15,0,0,0-5-4.4q0,47.15-1.62,53.65-1.9,5.43-9.22,7.73,8.13,2.84,9.22,6.91,1.62,6.49,1.62,47.56Zm34.15-1.35a1.48,1.48,0,0,0,.13.67Z"/><path class="cls-2" d="M1814.85,2042.1a30.62,30.62,0,0,1-31.43,0q-6.92,4.34-12.81,4.34a38.22,38.22,0,0,1-9.69-1,24.1,24.1,0,0,1-6.63-2.78q-5.83-3.51-5.83-8.8a7.79,7.79,0,0,1,1.49-4.75,12,12,0,0,0,7.59,2.31q12.06,0,16.66-10.3v-66.26q0-6.22-2.57-9.21-4.07-5-14-9.89,9.21-4.2,11.93-7.45a17.69,17.69,0,0,0,4.6-11.93v-57.18q-4.6-10.42-16.66-10.43a12.09,12.09,0,0,0-7.59,2.3,7.64,7.64,0,0,1-1.49-4.67,8.68,8.68,0,0,1,1.56-5,13.32,13.32,0,0,1,4.27-3.93,27,27,0,0,1,14.29-3.79,26.42,26.42,0,0,1,14.84,4.47,29.86,29.86,0,0,1,31.43,0,94.85,94.85,0,0,1,33.94-5.83q18.63,0,31.24,3.39a70.43,70.43,0,0,1,21.68,9.62q18.29,12.6,22.76,35.1,1.76,10,12.87,15.17-10.58,6-13.82,19-6.64,26.84-33.2,33.47a40.56,40.56,0,0,1,22.36,15q8.94,11.79,8.94,27.77v13.55q0,19.52,12.6,25.21a19.47,19.47,0,0,0,8.27,1.76,11.8,11.8,0,0,0,7.45-2.31,7.75,7.75,0,0,1,1.49,4.68,9.59,9.59,0,0,1-1.35,4.94,12.67,12.67,0,0,1-3.66,3.93,18,18,0,0,1-11.38,3.8,25.67,25.67,0,0,1-12.74-3.52q-11.38,6.22-21.27,1.21a15.16,15.16,0,0,1-8,2.31,17.47,17.47,0,0,1-14.9-8.13q-6.37-9.35-6.37-28.73v-10q0-31.3-17.88-40.65a29.72,29.72,0,0,0-14-3.12h-15.85v66q3.65,9.62,14,9.62a12,12,0,0,0,7.59-2.31,10.07,10.07,0,0,1,1.49,6q0,3.93-4.27,7.65t-12.8,3.73A27.16,27.16,0,0,1,1814.85,2042.1Zm-27.64-34.28q6.78-2.57,7.45-17.75.83-15.16.82-42t-.07-35.7q-.08-8.88-.2-14.3-.42-16-3-19.31a15,15,0,0,0-5-4.4q0,47.15-1.63,53.65-1.89,5.43-9.21,7.73,8.13,2.84,9.21,6.91,1.64,6.49,1.63,47.56Zm62.87-157.44q-26,0-26,20.18V1926q0,7.05,5.55,9.49,5.28,2.29,15.65,2.3t14.5-1.15a16.59,16.59,0,0,0,7.11-4q6.11-5.82,6.1-19.51v-39.56q0-17-14.09-21.68A26,26,0,0,0,1850.08,1850.38Zm30.62,120.32a21.59,21.59,0,0,1,5.42,14.9v17.89q0,22.48,9,24a11.79,11.79,0,0,0,4.74-.14,29.08,29.08,0,0,1-4.88-16v-19q0-10.71-3-15.18Q1886.8,1969.61,1880.7,1970.7Zm1.36-111.65q4.2,9.48,4.2,30.35,0,35.91-3.39,42.95,7.45-1.49,10.71-19.92l1.08-5.55q1.48-8.81,8.67-11.25-5.28-1.76-6.77-4.2c-1.09-1.9-2.06-5.12-2.92-9.69a94.7,94.7,0,0,0-2.64-11,31.76,31.76,0,0,0-2.84-6.64Q1885.58,1859.73,1882.06,1859.05Z"/><path class="cls-2" d="M2087.58,2042.1a30.64,30.64,0,0,1-31.44,0q-6.9,4.34-12.8,4.34a40.67,40.67,0,0,1-9.89-1,28.33,28.33,0,0,1-7.12-2.78q-6.49-3.51-6.5-8.8a7.85,7.85,0,0,1,1.49-4.75,12.61,12.61,0,0,0,7.93,2.31,22,22,0,0,0,10-2.58,16.67,16.67,0,0,0,7.66-8v-26.69q0-6.24-2.44-9.22-4.34-5.28-14.09-10,9.07-4.2,11.92-7.32a17.67,17.67,0,0,0,4.61-11.92v-4.88l-54.47-94.31q-7.86-7-14-7t-9.62,2.3c-1-.72-1.49-2.08-1.49-4.06a15.44,15.44,0,0,1,.95-5.49,11.66,11.66,0,0,1,3-4.41q4.34-4.07,12.6-4.06a23.89,23.89,0,0,1,14.64,4.74,27.28,27.28,0,0,1,16-4.74q9.29,0,15.25,4.61,7.17-4.6,13.41-4.61a45.85,45.85,0,0,1,10,.88,22.17,22.17,0,0,1,6.64,2.64q6.09,3.52,6.37,9.76,0,3.79-1.49,4.74a13.69,13.69,0,0,0-7.32-2.3q-7.86,0-12.74,2.84l40.52,77.78,38.48-77.91a24.13,24.13,0,0,0-12.81-3.39q-7.24,0-11.18,2.3-1.35-2-1.35-6.37a10.06,10.06,0,0,1,3.66-7.65q3.66-3.32,10.43-3.32a19.34,19.34,0,0,1,11.65,3.52,16.22,16.22,0,0,1,10.57-3.52,17.62,17.62,0,0,1,10.43,3,26.58,26.58,0,0,1,11.93-3,12.43,12.43,0,0,1,9.55,3.86,14.08,14.08,0,0,1,3.59,10c0,2.08-.5,3.48-1.49,4.2a15.56,15.56,0,0,0-8.67-2.3,26.79,26.79,0,0,0-15.85,4.87l-47.43,93.9v7.46q0,6.63,2.85,9.89,4.61,5.15,13.68,9.35-9.75,4.74-12.46,8a17.4,17.4,0,0,0-4.07,11.25v26.69a16,16,0,0,0,7.52,8,22.15,22.15,0,0,0,10.1,2.58,12.71,12.71,0,0,0,8-2.31,7.75,7.75,0,0,1,1.49,4.68,8,8,0,0,1-1.76,4.94,14.65,14.65,0,0,1-4.74,3.93,29.88,29.88,0,0,1-14.84,3.8A27.67,27.67,0,0,1,2087.58,2042.1Zm-27.64-34.28q7.17-2.7,7.86-21.27c.08-3.8.13-7.68.13-11.65v-22.63a21.09,21.09,0,0,0-2.44-10.71l-27.77-50.26q-5.84-10.17-8.4-12.61a16.2,16.2,0,0,0-9.76-4.33l40.65,75.33v6.64q0,8-1.09,11-1.62,5.14-10,7.72,9.08,3.39,10.3,8.27a37,37,0,0,1,.94,8.87c0,3.39-.06,6.35-.2,8.88S2059.94,2005.84,2059.94,2007.82Z"/></svg>