<?xml version="1.0" encoding="utf-8"?>
<!-- Generator: Adobe Illustrator 24.0.2, SVG Export Plug-In . SVG Version: 6.00 Build 0)  -->
<svg version="1.1" id="Layer_1" xmlns="http://www.w3.org/2000/svg" xmlns:xlink="http://www.w3.org/1999/xlink" x="0px" y="0px"
	 viewBox="0 0 3000 3000" style="enable-background:new 0 0 3000 3000;" xml:space="preserve">
<style type="text/css">
	.st0{fill:none;}
</style>
<rect class="st0" width="3000" height="3000"/>
<g>
	<g>
		<rect x="1303.81" y="1466.74" class="st0" width="587.23" height="304.52"/>
		<path class="st0" d="M2294.92,1041.92l-3.66-18.98c-3.36-12.28-8.56-23.83-15.6-34.63c-7.04-10.8-15.93-20.87-26.65-30.19
			c-20.33-17.67-47.29-32.68-80.85-45.03c14.48-35.9,21.98-68.75,22.43-98.53c-3.13-36.75-14.38-74.19-33.75-112.3
			c-57.59-115.77-168.1-151.36-331.55-106.78c-36.51-73.27-64.12-118.57-82.84-135.9c-43.82-33-77.97-50.48-102.44-52.44l-0.21,0.01
			c-8.19-5.28-16.48-10.12-24.89-14.39l-21.42-9.68c-28.87-11.47-58.99-17.2-90.34-17.2l-16.91,0.55
			c-68.33,3.59-141.94,35.12-220.81,94.57c-11.62,7.64-32.22,27.74-61.78,60.31c-30.17,39.12-58.5,82.6-84.99,130.43
			c-8.19,10.07-18.2,19.27-30.02,27.6c-6.04,3.69-15.42,6.61-28.15,8.78c-69.56,6.49-109.4,11.23-119.52,14.24
			c-15.32,3.39-34.92,10.69-58.8,21.9c-20.58,11.45-32.71,19.98-36.4,25.58l-22.5,25.76c-13.77,16.67-25.07,32.32-33.9,46.95
			c-7.5,8.59-15.2,28.25-23.1,58.98c-1.43,11.58-0.4,22.14,3.1,31.69c0.35,0.82,0.74,1.6,1.09,2.42
			c-0.78,5.29-0.76,10.08,0.07,14.37c-3.86,12.83-5.74,27.01-5.65,42.51c-6.71,5.25-12.36,11.12-16.92,17.62
			c-3.74,5.76-6.78,11.49-9.14,17.19l-0.72,2.03c-2.16,3.08-4.26,6.27-6.24,9.66c-10.63,20.98-16.43,34.56-17.41,40.73
			c-3.15,10.28-5.82,21.39-8.01,33.31c-0.87,20.14,0.52,36.32,4.17,48.53c3.46,15.03,8.8,31.72,16.02,50.08
			c3.35,8.94,7.29,16.43,11.8,22.47c8.29,9.57,14.84,14.84,19.63,15.83c2.56,0.05,4.99,0.02,7.3-0.09
			c-1.64,6.71-2.79,13.44-3.3,20.19c-2.71,21.3,3.22,46.92,17.78,76.85c11.41,16.92,54.16,37.74,128.26,62.45
			c36.42,11.87,75.48,17.07,117.19,15.6c1.22,0.16,1.96,3.85,2.19,11.06c-5.22,48.32-6.16,121.86-2.82,220.6
			c2.71,6.79,9.45,7.99,20.15,3.69c1.82,0.96,3.81,1.83,6.11,2.53c170.44-42.9,310.68-62.09,420.73-57.59
			c101.76,1.49,200.39,10.41,295.89,26.78c25.08,3.76,101.42,22.57,229.01,56.41c13.86,3.21,22.66,4.23,26.42,3.07l3.83-188.34
			c5.78-40.3,9.99-74.15,12.63-101.56c30.08-7.76,54.25-15.31,72.42-22.65c42.05-19.56,71.23-41.81,87.55-66.73l18.45-52.45
			c1.86-13.72,8.95-39.74,21.27-78.08c0.69-5.63,1.13-11.02,1.32-16.18l14.71-6.96l13.99-10.33l11.05-12.64l8.1-14.95l5.15-17.26
			C2295.91,1071.11,2296.4,1057.29,2294.92,1041.92z"/>
		<g>
			<path class="st0" d="M2282.3,956.13c-1.36-1.51-2.75-2.96-4.14-4.41c-2.01-2.64-4.08-5.25-6.3-7.8
				c-3.32-3.82-6.88-7.55-10.68-11.17c-3.79-3.62-7.82-7.14-12.08-10.56l-6.57-5.05c-5.09-3.65-12.23-7.36-21.42-11.14
				c-13.04-5.43-23.48-9.54-31.39-12.35c2.04-4.37,3.69-8.37,4.91-11.97c8.83-21.7,12.63-49.85,11.41-84.48
				c-4.21-72.32-32.35-129.36-84.42-171.1c-27.97-22.73-56.86-39.47-86.69-50.22c-32.61-11.81-70.41-18.16-113.39-19.04l-3.33,0.02
				c-32.4,1.05-58.59,4.81-78.63,11.27c-7.53,1.45-14.56,2.96-21.05,4.56c-4.01-18.34-10.54-36.37-19.66-54.1
				c-48-108.54-140.1-163.75-276.28-165.63l-9.99,0.12c-44.25,1.76-82.05,8.21-113.4,19.35c-46.02,15.41-88.24,36.37-126.65,62.86
				c-30.76,21.21-59.1,45.93-85.02,74.15c-10.06,10.09-25.32,29.08-45.76,56.96l-51.57,78.02c-9.12,12.32-18.89,21.1-29.3,26.32
				c-4.74,2.51-10.84,3.77-18.29,3.77c-37.26-5.45-56.13-7.54-56.58-6.27c-17.09,1.19-33.18,4.32-48.27,9.39
				c-50.54,16.53-91.9,41.24-124.11,74.11c-47.9,49.63-68.17,106.01-60.8,169.13c1.92,11.76,5.29,22.78,10.03,33.1
				c-0.01,0.01-0.03,0.03-0.04,0.04c-12.56,12.33-19.63,19.59-21.22,21.76c-10.31,11.25-19.21,22.5-26.71,33.75
				c-12.81,18.31-21.13,40.41-24.96,66.31c-1.2,10.07-1.3,21.26-0.35,33.53c0.01,0.3,0,0.6,0.01,0.9l0.66,9.44
				c0.61,6.32,1.56,12.68,2.85,19.08c2.17,11.85,6.52,25.79,13.05,41.82c10.69,25.89,22.6,44.85,35.74,56.93
				c-0.81,7.76-0.89,15.98-0.12,24.73c5.55,59.78,37.56,103.7,96.02,131.78c24.17,11.93,56.13,20.3,95.89,25.11
				c20.13,1.99,39.68,2.99,58.63,2.99c5.99,0,11.92-0.1,17.8-0.3l0.97-23.05c-65.97-0.78-123.08-11.7-171.34-32.78
				c-48.04-23.2-74.76-61.33-80.15-114.37c-2.37-15.21,0.57-31.26,8.83-48.18c6.37-14.03,22.22-38.15,47.55-72.37h-0.01l-2.69,1.86
				c-24.73,19.21-44.59,41.78-59.57,67.72c-1.49,2.47-2.8,5.06-4.03,7.7c-5.33-6.92-8.74-11.62-10.13-14
				c-9.9-16.15-16.24-28.82-19.04-38.01c-6.05-17.19-8.64-36.11-7.78-56.76l0.52-5.9c0.47-4.01,1.17-8.17,2.11-12.48
				c0.94-4.31,2.11-8.77,3.53-13.38c2.82-9.22,6.59-19.03,11.31-29.44c8.3-15.82,16.06-29.38,23.3-40.71
				c8.81-13.17,13.93-20.4,15.38-21.68c1.31-1.61,2.58-3.11,3.85-4.54c16.61,24.55,42.71,44.27,78.33,59.14
				c-49.91-36.69-76.27-71.79-79.09-105.28c-4.02-56.12,12.08-103.29,48.29-141.5c28.77-31.69,65.94-55.5,111.51-71.42
				c20.04-7.08,37.34-11.22,51.89-12.43l47.68,2.53l24.27-1.87c10.99-1.69,22.13-5.62,33.42-11.79c11.29-6.17,21.62-15.7,31-28.59
				c27.17-47.74,51.35-84.03,72.52-108.87c17.58-21.33,36.32-40.67,56.22-58.02c53.55-46.66,115.22-79.44,185.01-98.34
				c65.09-15.61,128.66-14.4,190.7,3.65c51.26,15.85,92.17,45.58,122.71,89.18c36,54.8,52.66,102.89,49.99,144.26
				c1.43,36.93-19.46,99.35-62.68,187.26c64.18-77.14,93.53-150.12,88.13-218.96c14.45-4,23.31-6.22,26.53-6.64
				c17.35-3.72,34.05-6.2,50.09-7.44c4.23-0.7,15.88-0.93,34.95-0.7c9.51,0.13,22.14,1.61,37.89,4.44
				c26.3,7.21,46.82,13.17,61.67,17.92c15.18,7.63,31.87,17.65,50.12,30.12c17.93,12.72,37.9,32.4,59.91,59.03
				c3.3,3.95,6.66,8.57,10.09,13.72c13.48,27.55,21.52,58.8,24.07,93.8c5.21,47.52-11.97,97.47-51.56,149.86
				c-20.23,29.26-79.66,73.35-178.29,132.27c96.22-40.93,161.03-80.57,194.44-118.93c4.55-3.71,15.46-19.65,32.72-47.79
				c3.78,1.05,7.5,2.18,11.12,3.41l11.97,4.5c7.77,3.23,15.13,6.9,22.07,11.03c13.89,8.25,26.13,18.3,36.73,30.16
				c13.5,17.63,21.74,33.04,24.74,46.26c2.87,11.35,3.45,29.29,1.75,53.78c-7.63,25.69-24.58,51.45-50.88,77.29
				c-10.99,12.47-57.31,45.59-138.97,99.38c61.41-29.36,105.25-53.05,131.56-71.08c0.37,3.73,0.72,8.33,1.06,13.82
				c0.09,5.89-0.19,12.01-0.85,18.36c-0.83,10.93-4.14,26.28-9.93,46.06c-4.74,14.72-16.24,34.4-34.52,59.02
				c-7.61,8.51-15.65,16.34-24.14,23.47c-2.1,1.77-4.24,3.49-6.4,5.18c-21.05,11.33-51.52,23.57-91.5,36.71l2.48-41.78
				c0.36-10.69,0.45-19.61,0.26-26.78c-0.14-3.33-0.28-5.99-0.4-8.06c3.81-1.66,7.56-3.36,11.2-5.15l9.31-4.8
				c6.08-3.3,11.92-6.8,17.52-10.49c11.19-7.39,21.39-15.57,30.62-24.53c-17.82,7.23-32.69,12.04-44.61,14.45
				c-12.01,2.46-23.03,3.34-33.06,2.65c-12.44-0.95-23.48-2.75-33.1-5.4c-2.78-0.73-8.94-2.7-18.41-5.89
				c-20.47-9.19-47.17-20.34-80.09-33.44c1.98-3.91,4.09-7.78,6.32-11.63c1.56-3.78,8.91-14.47,22.06-32.07
				c11.14-13.93,24.07-27.41,38.78-40.47c11.06-10.17,25.34-20.81,42.85-31.94c8.75-5.56,18.31-11.24,28.67-17.04
				c4.18-2.75,21.53-11.72,52.05-26.9l-17.36,4.13c-11.55,3.04-23.05,6.67-34.49,10.89c-11.45,4.21-22.84,9.02-34.18,14.4
				l-16.97,8.52c-39.28,21.65-67.28,41.11-83.99,58.36c-15.4,14.58-29.36,30.85-41.9,48.76c-14.1-5.47-29.06-11.21-44.93-17.24
				c-15.1-5.1-29.61-9.55-43.55-13.4c-12.96-5.24-24.87-9.39-35.63-12.38c-19.08-4.82-40.05-9.38-62.87-13.7
				c-0.54-4.7-0.88-9.55-0.95-14.59l0.3-12.98c0.52-8.9,1.69-18.28,3.51-28.14c3.64-19.74,9.86-41.41,18.68-65.04
				c8.5-21.84,19.38-45.03,32.65-69.57c6.63-12.27,13.86-24.88,21.68-37.82c3.17-6.05,16.24-26.23,39.2-60.53l-12.58,13.52
				c-33.54,37.02-67.08,81.8-100.63,134.34c-7.83,13.37-14.89,26.17-21.17,38.42c-4.11,6.83-11.78,23.92-23.01,51.29
				c-5.64,15.09-9.67,29.01-12.13,41.8c-11.73-1.81-23.83-3.57-36.35-5.28c-46.04-5.22-73.56-7.89-82.58-8.01
				c-18.73-1.34-36.38-2.01-52.97-2l-16.1,0.19c-1.34-2.13-2.63-4.32-3.84-6.6c-2.94-5.56-5.49-11.56-7.64-18
				c-2.15-6.45-3.91-13.34-5.28-20.68l-1.75-11.34c-2.26-13.75-3.86-35.29-4.81-64.65c-1.08-17.63-1.25-66.51-0.52-146.66
				l-5.46,35.98c-3.44,32.23-5.8,52.57-7.09,61.02c-2.92,20.08-5.54,36.64-7.87,49.74c-3.83,14.48-8.38,31.13-13.67,49.99
				c-2.02,5.88-4.19,11.46-6.51,16.75c-7.63,18.36-18.34,33.89-32.09,46.64l-21.82,9.99c-6.79,2.87-14.8,5.67-24.01,8.39
				c-18.01,5.59-32.24,6.94-42.69,4.04c-13.17-3.63-24.1-7.65-32.81-12.04c-16.71-8.46-29.87-16.28-39.51-23.48
				c-3.6-2.56-7.84-5.79-12.65-9.63c-5.48-5.79-12.5-13.47-21.08-23.1c-38.76-49.91-67.02-89.7-84.81-119.37
				c-9.77-14.99-27.2-48.59-52.3-100.79c-1.77-2.52-3.17-3.81-4.19-3.87l15.11,45.71c31.84,89.07,73.4,164.03,124.68,224.86
				c13.62,16.16,27.96,31.27,42.95,45.44c-3.76,1.06-7.43,2.12-10.97,3.18c-44.94,9.49-85.19,21.4-120.79,35.73
				c-16.85,1.24-26.83,1.89-29.9,1.95c-54.48,0.68-85.19,1.87-92.15,3.58c-17.71,1.85-39.91,7.21-66.6,16.08
				c14.23-0.83,39.38,1.38,75.46,6.65c7.54,1.42,11.85,2.38,12.92,2.88c5.2,1.54,9.68,3.43,13.43,5.66
				c11.73,7.17,20.41,15.74,26.04,25.7l4.65,8.39c0.25,0.5,0.48,1.03,0.73,1.54c0.01,1.56,0.02,3.16,0.03,4.79
				c-0.9,19.29-1.36,32.72-1.39,40.34c-1.06,15.28-2.06,32.29-3,51.07l-8.29,198.78c-1.52,8.65-2.48,16.4-2.83,23.22
				c-0.17,1.34-0.66,16.05-1.45,44.15c0.4,6.74,1.51,11.28,3.31,13.63c1.63,1.6,4.45,2.07,8.47,1.42
				c9.78-1.98,21.58-3.88,35.29-5.72c0.97-0.01,1.95-0.03,2.96-0.05c2.25-0.41,4.46-0.79,6.7-1.19c3.02-0.37,6.1-0.74,9.29-1.11
				c2.75-0.41,5.63-0.94,8.66-1.59c1.46-0.35,2.25-0.64,2.35-0.87c0,0,0,0,0,0c191.61-33.32,346.23-46.82,463.82-40.49
				c101.48,3.26,243.96,29.24,427.4,77.91c8.06,3.25,16.63,6.24,25.79,8.92c24.24,7.69,40.83,10.5,49.76,8.43
				c7.1-2.74,11.2-6.41,12.31-11.01c0.9-4.69,1.41-8.61,1.51-11.74v-0.05c0.16-0.93,0.34-1.88,0.46-2.78
				c0.44-3.4,0.71-6.16,0.82-8.27l0.03-0.64l0.15-7.51c0.25-2.02,0.47-4.09,0.6-6.27l-0.45-252.83
				c43.62-12.09,80.26-27.29,109.91-45.61c32-20.37,54.2-47.61,66.59-81.71c13.36-38.78,16.63-77.19,9.81-115.23l-0.02,0
				c0-0.01,0-0.02-0.01-0.04c33.2-27.95,54.21-58.57,62.93-91.88C2316.33,1027.3,2307.81,990.09,2282.3,956.13z M1046.38,1277.78
				l0.59-4.49l2.32-23.81c9.93-4.18,21-8.52,33.38-13.03c55.09-19.04,101.57-33.59,139.43-43.67c14.52-4.07,29.15-7.8,43.86-11.2
				l128.32-18.45c60.86-4.7,126.57-4.03,197.13,2.01c46.24,3.89,100.35,14.29,162.34,31.19l22.38,7.2c-2.92-1.09-5.9-2.18-8.95-3.24
				l-3.46-1.19c5.45,1.53,10.93,3.08,16.49,4.7c31.92,9.64,61.75,19.36,89.56,29.16c-0.11,0.18-0.22,0.34-0.32,0.52l2.65,0.3
				c8.86,3.14,17.51,6.28,25.94,9.44c45.26,20.6,89.44,42.24,132.53,64.93c-0.88,1.57-1.55,16.05-2.01,43.43
				c-36.07-17.8-77.56-36.9-157.28-65.1c-92.44-32.71-237.29-78.04-385.59-80.39c-144.97-2.3-292.73,36.51-439.32,75.85
				c0.01-0.46,0.02-0.95,0.04-1.4C1046.4,1279.57,1046.39,1278.67,1046.38,1277.78z M1537.57,1576.44
				c-55.58-3.55-129.93-1.08-223.06,7.4c-120.81,13.72-215.17,28.2-283.1,43.46c0.33-7.26,0.54-12.56,0.61-15.8
				c0.01-0.55,0.01-1.04,0.02-1.59c0.28-2.12,0.54-4.34,0.75-6.73l8.01-168.81c0.53-12.4,1.03-24.29,1.5-35.66
				c0-0.1,0.01-0.21,0.01-0.31h0c1.63-39.79,2.83-73.19,3.63-100.27c148.45-39.85,295.6-78.81,439.52-76.52
				c145.65,2.31,288.52,46.91,380.65,79.5c83.91,29.69,124.89,49.11,162.23,67.68c-0.07,5.72-0.13,11.85-0.18,18.38
				c-0.01,0-0.01,0-0.02,0.01c-0.05,7.13-0.09,14.74-0.13,22.83h0c-0.33,60.1-0.22,146.75,0.31,259.95
				c-5.4-1.38-11.37-2.88-17.9-4.5c-0.18-0.05-0.34-0.11-0.52-0.16c-96.94-26-169.17-43.86-216.7-53.56
				C1704.06,1592.35,1618.86,1580.59,1537.57,1576.44z M2058.63,1384.95L2058.63,1384.95L2058.63,1384.95l0.01,3.73L2058.63,1384.95
				z"/>
			<path class="st0" d="M1062.82,1429.29l-0.02-0.32c-0.02-0.22-0.04-0.43-0.05-0.64l-0.03-0.31c-0.02-0.21-0.04-0.41-0.06-0.62
				l-0.03-0.3h-0.01l0.26,2.86C1062.85,1429.73,1062.83,1429.51,1062.82,1429.29z"/>
			<path class="st0" d="M1093.17,1571.38c-6.62-6-12.25-14.66-16.9-25.99c-2.61-6.27-4.41-14.05-5.39-23.34
				c-0.9-7.67-1.62-17.17-2.16-28.52l-5.84-63.23l0.05,0.92c0.1,2.86,0.1,5.24,0.01,7.14c-1.23,33.86-2.28,60.81-3.13,80.83
				c-1.4,31.45-2.23,47.29-2.49,47.54c-0.26,7.12-0.45,14.78-0.55,22.96c-0.02,4.02,0.07,6.34,0.25,6.98
				c6.96,2.61,29.1,0.74,66.4-5.61C1104.66,1581.09,1094.57,1574.53,1093.17,1571.38z"/>
		</g>
	</g>
	<g>
		<g>
			<path class="st0" d="M2394.52,1480.32c-2.79-2.89-5.54-5.67-8.26-8.37c-8.05-19.88-21.8-35-41.27-45.33
				c1.79,4.41,3.32,8.87,4.59,13.37c-18.26-13.41-34.51-21.1-48.77-23.06c-50.38-14.57-113.25-18.9-188.6-12.99
				c-22.79,3.25-47.64,10.8-74.56,22.66c-28.38,13.71-47.85,23.79-58.42,30.23c-2.3,1.4-4.17,2.63-5.63,3.69l-2.86,1.75
				c-34.32,21.59-51.54,33.49-51.64,35.7c-10.93,9.56-22.66,21.37-35.2,35.45l0,0c-9.32-5.54-23.16-7.85-41.54-6.92
				c-7.31,0.05-16.09,0.97-26.32,2.75l-72.16,4.84c-11,7.58-21.46,15.92-31.4,24.98c-24.23,10.37-51.86,24.81-82.91,43.34
				l-137.09,93.26c-20.67,8.14-39.83,15.78-57.51,22.95l-14.03,0.37l-3.9,6.94c-35.6,14.61-64.36,27-86.25,37.16
				c-13.28,5.16-36.12,17.61-68.52,37.36c-2.34,1.43-4.74,2.9-7.18,4.4l-33.82,21.94c-26.85,18.57-50.12,37.72-69.82,57.44
				c0.09-0.21,0.19-0.42,0.28-0.64l-0.36,0.72c-16.8,16.83-31,34.08-42.59,51.75l-48.8,13.8l-0.48,1.45
				c-0.55,2.07-1.11,4.12-1.66,6.16l-34.73,14.09c-16.41,8.24-31.4,19.18-44.99,32.79c-32.33,20.54-65.73,46.6-100.17,78.18
				c-10.01,9.08-23.37,21.83-40.08,38.23c-12.09,14.6-36.94,40.8-74.57,78.59c-4.94,4.86-9.99,9.77-15.12,14.71
				c0.82-3.43,1.67-6.94,2.53-10.56l-25.53,32.37c-11.04,10.31-22.44,20.77-34.26,31.38c-4.49,4.63-9.47,10.49-14.93,17.57
				c-11.65,15.52-24.3,36.34-37.95,62.45c-3.94,6.32-10.55,21.63-19.83,45.91c-4.59,4.06-8.68,32.79-12.27,86.17l-0.45-1.26
				l-1.11-4.87l-0.55-5.08c-0.59,0.13-1.34,0.46-2.24,0.98l-0.21,0.13c-0.67,0.87-1.23,1.96-1.67,3.27
				c-0.36,0.38-0.77,2.83-1.23,7.35c-0.21,3.92,0.04,8.71,0.73,14.36c0.03,0.8,0.31,2.45,0.84,4.95l-1.11,10.89
				c0.01,10.45,0.93,20.31,2.76,29.58c4.17,14.99,7.71,25.58,10.62,31.81c4.89,14.79,8.59,22.25,11.1,22.4l1.76,9.08
				c2.14,5.67,6.23,10.55,12.27,14.66l10.51,5.58c7.98,3.33,17.9,5.88,29.77,7.66c0.68,0.36,2.09,0.69,4.19,0.98
				c1.3,0.71,2.63,1.43,4.01,2.18l9.54,1.35c19.55,3.27,47.31,2.1,83.26-3.51c49.14-9.95,94.73-26.02,136.78-48.2
				c19.54-7.01,41.27-15.35,65.23-25.06c6.55-3.44,13.01-6.83,19.4-10.2c25.24-9.12,53.28-19.36,84.14-30.73
				c39.71-15.41,99.75-47.46,180.12-96.17l143.26-91.88c13.94-6.21,24.73-11.12,32.36-14.7c26.07-12.25,47.14-22.94,63.22-32.05
				c8.05-4.42,16.26-9.18,24.64-14.29c12.29-7.49,24.93-15.73,37.92-24.7c40.51-30.13,79.56-58.42,117.15-84.89l41.21-30.95l7.05-4
				c6.77-3.87,16.47-9.88,29.09-18.04c28.03-18.15,53.09-36.3,75.18-54.46c1.99-1.79,3.94-3.55,5.86-5.3
				c12.28-8.11,24.95-16.5,38.05-25.19c66.53-42.66,127.81-84.93,183.8-126.81c17.42-13.93,33.95-27.23,49.61-39.9l45.18-33.03
				c39.46-32.13,78.17-66.54,116.13-103.23c16.11-14.8,28.04-26.63,35.79-35.49c6.35-6.46,12.69-12.98,19-19.58
				c11.05-12.15,20.6-23.46,28.66-33.93c11.66-20.16,20.99-38.61,28.01-55.34c7.01-16.73,11.7-31.75,14.06-45.06
				C2403.66,1519.84,2401.97,1503.74,2394.52,1480.32z M1205.18,2254.35l0.03-0.02c1.66-0.64,3.32-1.29,4.98-1.94l-0.02,0.02
				c-1.98,1.38-3.94,2.76-5.9,4.15C1204.56,2255.82,1204.87,2255.09,1205.18,2254.35z"/>
			<g>
				<path class="st0" d="M2385.92,1442.09c-2.9-3.12-5.75-6.02-8.56-8.74l0.4-0.78c-2.37-1.84-4.63-3.55-6.8-5.15
					c-26.46-23.37-49.23-29.89-70.7-32.21c-2.9-0.84-5.87-1.69-8.96-2.54c-6.28-1.19-11.71-1.82-16.28-1.89
					c-4.36,0.91-7.46,1.91-9.28,3l-0.13,0.08c-1.78,1-3.68,2.36-5.7,4.08c-20.25-8.75-42.06-12.89-65.43-12.37
					c-14.46-0.36-28.45,0.15-41.99,1.53c-6.41,0.22-13,0.7-19.8,1.48c-16.57,1.91-41.95,7.61-65.55,14.4
					c-23.6,6.79-45.51,14.66-65.73,23.57c-20.23,8.92-38.75,18.92-55.47,29.98c-16.71,11.06-25.14,17.66-33.07,24.53
					c-6.17,5.34-12.14,10.92-17.92,16.75c-17.15-3.24-46.36-1.59-87.65,4.94c-59.8,13.6-110.55,32.57-152.26,56.93
					c-1.69,0.95-3.36,1.91-5.03,2.86c-31.32,16.41-62.82,36.2-94.45,59.34c-43.35,31.73-53.43,41.22-62.1,50.27
					c-5.83,6.09-11.34,12.27-16.55,18.54c-9.6,2.47-17.5,5.1-23.68,7.9c-2.53,1.11-5.19,2.36-7.95,3.72
					c-9.13,3.23-16.85,6.1-23.13,8.6c-8.37,3.19-29.47,12.96-63.29,29.32c-7.46,3.54-16.5,8.37-27.1,14.47
					c-31.46,15.74-61.57,33.1-90.3,52.06c-36.95,24.39-71.59,51.38-90.86,68.41c-19.26,17.03-24.75,23.41-30.35,31.22
					c-0.94,1.31-1.88,2.68-2.83,4.08c-25.86,10.23-59.12,25.77-90.73,43.03c-44.64,24.38-86.01,51.91-124.07,82.46
					c-38.06,30.54-72.78,64.04-93.57,87.8c-20.79,23.76-29.98,35.81-38.47,48.07c-0.97,1.4-1.93,2.81-2.88,4.21
					c-5.51,3.87-12,8.76-19.49,14.68c-0.18,0.15-0.35,0.3-0.53,0.44c-0.39,0.19-0.77,0.4-1.15,0.63c-0.36,0.22-0.72,0.46-1.07,0.71
					c-45.14,32.83-90.37,66.47-133.66,189.46c-22.42,63.68-46.93,158.09-11.83,215.66c32.16,52.75,109.73,69.41,257.86,19.62
					c160.07-53.8,410.42-187.54,659.33-339.3c245.17-149.48,488.95-316.45,643.68-441.73c266.41-215.7,277.22-314.83,242.68-371.49
					C2398.1,1455.83,2391.78,1448.39,2385.92,1442.09z M2156.64,1514.14c-50.01,47.6-84.66,80.04-103.94,97.32
					c-2.05,1.83-4.07,3.62-6.08,5.38c-2.98,2.12-6.01,4.26-9.09,6.44l-27.02,14.18c-6.57,2.04-9.69,1.98-9.36-0.16l10.99-47.17
					c4.46-14.03,10.42-28.86,17.87-44.49c2.93-6.33,17.48-31.26,43.62-74.78c8.31-12.57,15.36-21.86,21.16-27.87
					c5.08-5.88,14.5-12.09,28.24-18.63c4.35-1.73,15.41-4.32,33.17-7.77c20.99-2.92,39.59-3.93,55.79-3.04
					c6.37,0.44,16.29,2.7,29.75,6.76c-17.82,27.07-32.07,46.01-42.75,56.81C2194.43,1481.59,2180.31,1493.92,2156.64,1514.14z
					 M1840.03,1567.66c-11.88,17.57-25.31,38.07-40.37,61.47c-15.06,23.4-31.75,49.7-50.01,78.91c-2.48,3.96-4.7,7.52-6.72,10.74
					c-41.89,59.22-72.2,100.46-90.92,123.73c-8.9,11.74-17.03,20.3-24.37,25.69c-1.1,0.62-2.17,1.13-3.17,1.48
					c-4.76,1.61-9.17,2.32-13.25,2.19c-1.33-1.29-2.75-2.65-4.28-4.09c-2.94-4.2-5.31-8.94-7.1-14.23
					c-2.25-6.19-3.37-15.14-3.37-26.81c4.42-24.87,13.67-61.67,27.76-110.44c9.18-30.22,21.41-57.66,36.69-82.3
					c20.31-32.99,49.44-60.05,87.38-81.19c38-11.46,76.47-17.67,115.39-18.66C1857.33,1542.66,1849.07,1554.3,1840.03,1567.66z
					 M1376.45,1905.99c-5.06,11.53-9.23,20.52-12.53,27.03l-24.42,36.61c-6.9,9.53-16.46,21.91-28.69,37.13
					c-28.43,33.04-47.1,52.74-56,59.11c-2.38,2.21-4.26,3.45-5.67,3.75l1.42-50.58c14.37-61.42,20.95-106.22,19.76-134.39
					c2.36-13.86,6.35-26.15,11.96-36.87c14.22-25,37.06-49.03,68.48-72.1l58.62-29.57c6.22-3.04,16.9-7.1,32.05-12.19
					c3.18-1.35,5.8-2.47,7.88-3.38c-6.4,12.06-23.31,54.87-37.46,90.06C1397.26,1856.91,1385.48,1885.4,1376.45,1905.99z
					 M1021.65,2125.68c-7.29,16.27-13.04,27.63-17.96,36.79c-3.29,6.11-6.97,12.74-11.23,19.89
					c-11.08,15.29-21.36,28.67-30.81,40.09c-18.54,22.77-33.92,37.22-46.14,43.37c-7.33,3.02-12.11-4.14-14.33-21.48
					c-0.35-14.63-0.47-27.41-0.38-38.34c0.59-7.68,1.4-15.77,2.44-24.29c4.13-22.38,8.81-39.71,14.03-51.99l10.6-23.78l21.3-40.8
					c7.18-10.37,15.4-20.52,24.65-30.46c6.36-7.58,19.54-19.67,39.55-36.29c16.82-12.51,43.86-28.31,81.08-47.4
					c-3.83,7.89-8.21,17.63-13.71,30.9c-9.99,24.07-22.05,54.71-32.46,80.59C1037.84,2088.34,1028.94,2109.42,1021.65,2125.68z
					 M708.15,2291.01c1.03-6.24,3.34-14.44,6.94-24.6c4.98-13.29,11.2-24.26,18.64-32.91c0.32-0.79,1.74-2.46,4.25-5
					c-4.75,11.62-10.67,29.04-19.69,60.11c-7.3,25.17-16.37,59-24.08,88.33L708.15,2291.01z M2381.21,1478.32
					c24.76,40.61,31.51,125.82-235.1,341.68c-154.11,124.77-396.74,290.84-640.31,439.35
					c-247.28,150.76-495.51,283.42-653.05,336.37c-144.92,48.7-206.32,27.92-230.48-11.71l0,0
					c-29.74-48.78-9.56-133.55,13.23-198.29c20.37-57.86,40.71-94.22,61.05-119.82c-6.63,17.56-12.09,39.13-16.39,64.71
					c-6.92,32.47-11.54,66.18-13.86,101.15l-7.66,36.61c-1.3,9.84-1.34,16.65-0.12,20.44c0.91,1.2,2.25,0.43,4-2.33
					c4.71-8.1,9.49-17.15,14.34-27.14c0.49-1.18,0.98-2.37,1.47-3.56c1.83-3.62,3.42-6.96,4.75-10.02c2.13-4.87,3.67-9.02,34-101.69
					c19.82-60.54,29.09-86.25,34.99-100.15c10.87-18.04,24.48-37.75,40.83-59.15c24.29-31.56,51.22-60.62,80.8-87.18
					c15.83-13.35,30.97-25.67,45.43-37c-4.61,8.37-9.37,17.28-14.26,26.73c-2.19,7-4.1,13.88-5.73,20.65
					c-2.05,6.28-3.82,12.66-5.3,19.12c-0.06-0.3-0.15-0.6-0.32-0.87l0,0c-0.9-1.48-3.07-1.8-4.84-0.72
					c-1.77,1.08-2.48,3.16-1.58,4.63l0,0c0.9,1.48,3.07,1.8,4.84,0.72c0.57-0.35,1.01-0.8,1.35-1.3
					c-2.33,10.72-3.89,21.69-4.67,32.9c-7.05,71.75-3.51,116.12,10.63,133.09c6.98,8.13,34.18-16.68,81.61-74.43
					c12.5-16.17,24.1-34.13,34.79-53.84c4.1-6.61,8.22-13.38,13.2-22.49c7.28-13.29,16.2-31.22,26.75-53.86
					c10.56-22.64,22.81-49.99,36.56-81.96c13.75-31.97,20.24-44.46,26.5-55.78c6.26-11.32,12.07-20.93,17.27-28.82
					c5.2-7.89,9.69-14.06,13.4-18.29c1.24-1.42,5.61-5.59,12.12-11.5c20.29-16.79,45.42-34.98,75.39-54.57
					c10.34-7.01,22.9-14.79,37.68-23.35c-12.38,16.68-22.35,35.9-29.91,57.68c-2.98,1.38-4.39,29.65-4.22,84.83
					c-4.55,25.02-7.8,48.35-9.76,70c-2.85,16.19-4.31,32.16-4.35,47.88c0.14,9.23,2.41,16.02,6.83,20.38
					c7.04,7.31,12.69,9.42,16.95,6.32c4.08-1.73,9.86-7.17,17.35-16.29c30.97-37.04,49.94-60.74,56.94-71.12
					c5.65-7.03,10.9-13.73,15.74-20.09c11.75-15.41,21.2-28.84,26.36-35.62c5.17-6.79,11.01-15.64,19.25-31.38
					c8.24-15.75,19.31-39.07,33.26-70.1c13.77-30.61,30.3-68.76,41.87-94.53c13.92-23.9,32.98-48.37,57.19-73.42
					c17.53-21.27,55.34-49.87,113.43-85.79c9.34-5.62,18.71-10.9,28.1-15.86c-13.45,14.72-24.57,31.01-33.33,48.85
					c-23.31,38.86-39.67,83.58-49.08,134.18c-5.23,35.2-6.26,61.27-3.09,78.19c4.01,24.92,13.15,42.03,27.42,51.35
					c14.46,7.67,52.92-29.19,115.4-110.56c28.09-39.28,50.41-73.14,66.96-101.58c6.33-9.29,12.79-18.77,19.01-27.88
					c16.98-24.86,32.14-46.86,45.5-66c13.35-19.14,24.78-35.46,32.64-46.68c1.11-1.58,2.18-3.09,3.22-4.55l64.06-54.91
					c6.14-4.93,12.46-9.58,18.95-13.95c17.12-10.71,32.25-18.83,45.37-24.37c30.42-11.88,52.74-18.89,66.97-21.04
					c0.58,0.2,0.42,1.05-0.47,2.57c-20.93,28.78-33.64,46.81-38.12,54.11c-6.15,9.71-13.86,23.28-23.12,40.71
					c-10.29,19.08-20.91,46.86-31.84,83.33c-7.64,25.01-9.13,41.46-4.46,49.34c1.63,1.84,4.14,3.03,7.51,3.6l-0.06,0.04l1.03,0.1
					c0.39,0.05,0.8,0.09,1.21,0.12l0.74,0.07c0.01,0,0.02-0.01,0.04-0.01c0.04,0,0.07,0.01,0.11,0.01
					c4.28-0.69,11.03-3.35,20.23-7.97c1.11-0.54,2.25-1.1,3.46-1.7c0.79-0.38,1.77-0.92,2.93-1.62c0.02-0.01,0.03-0.02,0.05-0.03
					c0.01-0.01,0.02-0.01,0.03-0.02c0.83-0.5,1.76-1.09,2.78-1.75c8.99-5.57,21.45-14.83,37.37-27.77
					c2.79-2.13,17.23-15.27,43.31-39.43c0.03-0.02,0.06-0.04,0.08-0.06l5.39-5.01l48.98-42.03l14.61-11.72
					c8.67-8.15,18.84-17.09,30.52-26.82c9.52-8.69,20.7-19.05,33.55-31.07c3.94-3.46,6.53-6.12,7.76-7.97
					c7.44-8.88,15.63-19.17,24.58-30.88c1.11-1.2,2.39-2.45,3.84-3.75c1.16-1.05,2.74-2.08,4.73-3.09c0.15-0.61,0.59-1.12,1.32-1.54
					c5.68-2.21,20.74,0.18,45.17,7.17c3.95,1.35,8.5,3.23,13.62,5.62c0.11,0.07,0.21,0.13,0.32,0.2l0.04-0.02
					c0.04,0.01,0.07,0.03,0.11,0.05c0.99,0.46,1.93,0.91,2.84,1.35c1.59,0.77,3.23,1.59,4.92,2.46c5.07,2.65,8.43,4.82,10.08,6.53
					c2.11,1.59,5.19,5.93,9.24,13.02l0.04-0.02c0.6,0.63,1.2,1.27,1.81,1.92C2371.29,1464.49,2376.69,1470.91,2381.21,1478.32
					L2381.21,1478.32z"/>
				<path class="st0" d="M2210.27,1724.5c-56.72,47.45-138.35,107.13-244.9,179.02c-56.16,37.97-128.12,84.33-215.89,139.06
					c17.24-11.15,35.04-22.7,53.43-34.69c123.72-80.85,190.81-126.46,201.25-136.83l-1.13,0.54
					c-20.21,10.34-65.79,36.96-136.75,79.88c-126.34,76.63-248.29,151.09-365.85,223.39c-28.78,17.54-56.08,34.03-81.88,49.46
					c-61.29,36.62-114.06,67.3-158.3,92.05c-38.44,21.71-73.11,40.82-103.99,57.33c-52.72,27.82-89.05,46.48-108.98,55.96
					c-27.48,13.48-52.53,25.42-75.13,35.81l-159.17,72.16c79.25-25.35,165.13-59.3,257.64-101.83
					c-58.1,29.98-109.61,54.9-154.52,74.77c-131.04,57.52-223.85,72.27-278.43,44.25l-5.91-2.49
					c13.89,65.14,83.85,75.86,209.9,32.16c165.78-57.44,370.18-159.95,613.2-307.55c147.96-90.41,282.58-177.37,403.85-260.88
					c83.43-57.15,158.55-110.79,225.38-160.91c33.04-24.81,62.88-47.98,89.52-69.51l41.8-34.73
					c73.81-64.63,119.22-112.56,136.23-143.8c12.55-21.32,19.72-38.15,21.5-50.49c6.09-26.86,6.04-47.16-0.16-60.9
					C2383.73,1552.14,2329.49,1628.4,2210.27,1724.5z"/>
				<path class="st0" d="M816.28,2226.52c3.1-1.89,4.34-5.52,2.76-8.11l0,0c-1.58-2.59-5.37-3.15-8.48-1.26
					c-3.1,1.89-4.34,5.52-2.76,8.11l0,0C809.39,2227.85,813.18,2228.42,816.28,2226.52z"/>
				<path class="st0" d="M806.74,2339.59c3.1-1.89,4.34-5.52,2.76-8.11l0,0c-1.58-2.59-5.37-3.15-8.48-1.26
					c-3.1,1.89-4.34,5.52-2.76,8.11l0,0C799.84,2340.92,803.63,2341.48,806.74,2339.59z"/>
				<path class="st0" d="M1190.04,1991.14c3.1-1.89,4.34-5.52,2.76-8.11l0,0c-1.58-2.59-5.37-3.15-8.48-1.26
					c-3.1,1.89-4.34,5.52-2.76,8.11l0,0C1183.15,1992.47,1186.94,1993.03,1190.04,1991.14z"/>
				<path class="st0" d="M1106.09,2159.16c3.1-1.89,4.34-5.52,2.76-8.11l0,0c-1.58-2.59-5.37-3.15-8.48-1.26
					c-3.1,1.89-4.34,5.52-2.76,8.11l0,0C1099.19,2160.49,1102.99,2161.05,1106.09,2159.16z"/>
				<path class="st0" d="M1149.43,2087.25c3.1-1.89,4.34-5.52,2.76-8.11l0,0c-1.58-2.59-5.37-3.15-8.48-1.26
					c-3.1,1.89-4.34,5.52-2.76,8.11l0,0C1142.53,2088.57,1146.33,2089.14,1149.43,2087.25z"/>
				<path class="st0" d="M1558.84,1770.14c3.1-1.89,4.34-5.52,2.76-8.11l0,0c-1.58-2.59-5.37-3.15-8.48-1.26
					c-3.1,1.89-4.34,5.52-2.76,8.11l0,0C1551.94,1771.47,1555.74,1772.03,1558.84,1770.14z"/>
				<path class="st0" d="M1476.47,1943.51c3.1-1.89,4.34-5.52,2.76-8.11l0,0c-1.58-2.59-5.37-3.15-8.48-1.26
					c-3.1,1.89-4.34,5.52-2.76,8.11l0,0C1469.57,1944.84,1473.37,1945.4,1476.47,1943.51z"/>
				<path class="st0" d="M1978.87,1558.76c3.1-1.89,4.34-5.52,2.76-8.11l0,0c-1.58-2.59-5.37-3.15-8.48-1.26
					c-3.1,1.89-4.34,5.52-2.76,8.11l0,0C1971.97,1560.09,1975.77,1560.65,1978.87,1558.76z"/>
				<path class="st0" d="M1878.5,1691.79c3.1-1.89,4.34-5.52,2.76-8.11l0,0c-1.58-2.59-5.37-3.15-8.48-1.26
					c-3.1,1.89-4.34,5.52-2.76,8.11l0,0C1871.6,1693.12,1875.4,1693.68,1878.5,1691.79z"/>
				<path class="st0" d="M1195.3,1918.72c2.99-1.82,4.18-5.32,2.66-7.81l0,0c-1.52-2.49-5.17-3.03-8.16-1.21
					c-2.99,1.82-4.18,5.32-2.66,7.81l0,0C1188.66,1920,1192.32,1920.54,1195.3,1918.72z"/>
				<path class="st0" d="M859.56,2256.3c2.99-1.82,4.18-5.32,2.66-7.81l0,0c-1.52-2.49-5.17-3.03-8.16-1.21
					c-2.99,1.82-4.18,5.32-2.66,7.81l0,0C852.92,2257.58,856.57,2258.12,859.56,2256.3z"/>
				<path class="st0" d="M761.57,2311.84c2.99-1.82,4.18-5.32,2.66-7.81l0,0c-1.52-2.49-5.17-3.03-8.16-1.21s-4.18,5.32-2.66,7.81
					l0,0C754.92,2313.12,758.58,2313.66,761.57,2311.84z"/>
				<path class="st0" d="M1474.92,1865.68c2.99-1.82,4.18-5.32,2.66-7.81l0,0c-1.52-2.49-5.17-3.03-8.16-1.21
					c-2.99,1.82-4.18,5.32-2.66,7.81l0,0C1468.28,1866.96,1471.93,1867.51,1474.92,1865.68z"/>
				<path class="st0" d="M1359.27,2053.63c2.99-1.82,4.18-5.32,2.66-7.81l0,0c-1.52-2.49-5.17-3.03-8.16-1.21
					c-2.99,1.82-4.18,5.32-2.66,7.81l0,0C1352.63,2054.91,1356.28,2055.45,1359.27,2053.63z"/>
				<path class="st0" d="M1775.96,1837.7c2.99-1.82,4.18-5.32,2.66-7.81l0,0c-1.52-2.49-5.17-3.03-8.16-1.21
					c-2.99,1.82-4.18,5.32-2.66,7.81l0,0C1769.31,1838.98,1772.97,1839.52,1775.96,1837.7z"/>
				<path class="st0" d="M1883.31,1635.4c2.99-1.82,4.18-5.32,2.66-7.81l0,0c-1.52-2.49-5.17-3.03-8.16-1.21
					c-2.99,1.82-4.18,5.32-2.66,7.81l0,0C1876.67,1636.68,1880.32,1637.22,1883.31,1635.4z"/>
				<path class="st0" d="M2277.53,1516.04c2.99-1.82,4.18-5.32,2.66-7.81l0,0c-1.52-2.49-5.17-3.03-8.16-1.21
					c-2.99,1.82-4.18,5.32-2.66,7.81l0,0C2270.89,1517.32,2274.54,1517.87,2277.53,1516.04z"/>
				<path class="st0" d="M1975.46,1722.03c2.99-1.82,4.18-5.32,2.66-7.81l0,0c-1.52-2.49-5.17-3.03-8.16-1.21
					c-2.99,1.82-4.18,5.32-2.66,7.81l0,0C1968.82,1723.31,1972.47,1723.85,1975.46,1722.03z"/>
				<path class="st0" d="M1785.84,1763.04c2.99-1.82,4.18-5.32,2.66-7.81l0,0c-1.52-2.49-5.17-3.03-8.16-1.21
					c-2.99,1.82-4.18,5.32-2.66,7.81l0,0C1779.19,1764.32,1782.85,1764.86,1785.84,1763.04z"/>
				<path class="st0" d="M1101.26,2056.43c1.77-1.08,2.48-3.16,1.58-4.63l0,0c-0.9-1.48-3.07-1.8-4.84-0.72
					c-1.77,1.08-2.48,3.16-1.58,4.63l0,0C1097.32,2057.19,1099.49,2057.51,1101.26,2056.43z"/>
				<path class="st0" d="M1140.89,1983.84c1.77-1.08,2.48-3.16,1.58-4.63l0,0c-0.9-1.48-3.07-1.8-4.84-0.72
					c-1.77,1.08-2.48,3.16-1.58,4.63l0,0C1136.95,1984.6,1139.12,1984.92,1140.89,1983.84z"/>
				<path class="st0" d="M1183.61,2053.4c-1.77,1.08-2.48,3.16-1.58,4.63l0,0c0.9,1.48,3.07,1.8,4.84,0.72
					c1.77-1.08,2.48-3.16,1.58-4.63l0,0C1187.55,2052.64,1185.38,2052.32,1183.61,2053.4z"/>
				<path class="st0" d="M1507.6,1754c1.77-1.08,2.48-3.16,1.58-4.63l0,0c-0.9-1.48-3.07-1.8-4.84-0.72
					c-1.77,1.08-2.48,3.16-1.58,4.63l0,0C1503.66,1754.76,1505.83,1755.08,1507.6,1754z"/>
				<path class="st0" d="M1590.74,1660.8c1.77-1.08,2.48-3.16,1.58-4.63l0,0c-0.9-1.48-3.07-1.8-4.84-0.72s-2.48,3.16-1.58,4.63l0,0
					C1586.8,1661.56,1588.97,1661.88,1590.74,1660.8z"/>
				<path class="st0" d="M1548.14,1844.13c1.77-1.08,2.48-3.16,1.58-4.63l0,0c-0.9-1.48-3.07-1.8-4.84-0.72
					c-1.77,1.08-2.48,3.16-1.58,4.63l0,0C1544.2,1844.89,1546.37,1845.21,1548.14,1844.13z"/>
				<path class="st0" d="M1897.25,1733.54L1897.25,1733.54c0.9,1.48,3.07,1.8,4.84,0.72c1.77-1.08,2.48-3.16,1.58-4.63l0,0
					c-0.9-1.48-3.07-1.8-4.84-0.72C1897.06,1729.99,1896.35,1732.06,1897.25,1733.54z"/>
				<path class="st0" d="M1948.87,1598.75c1.77-1.08,2.48-3.16,1.58-4.63l0,0c-0.9-1.48-3.07-1.8-4.84-0.72
					c-1.77,1.08-2.48,3.16-1.58,4.63l0,0C1944.93,1599.51,1947.1,1599.83,1948.87,1598.75z"/>
				<path class="st0" d="M2019.11,1466.1c1.77-1.08,2.48-3.16,1.58-4.63l0,0c-0.9-1.48-3.07-1.8-4.84-0.72
					c-1.77,1.08-2.48,3.16-1.58,4.63l0,0C2015.17,1466.86,2017.33,1467.18,2019.11,1466.1z"/>
				<path class="st0" d="M1879.89,1614.33c1.77-1.08,2.48-3.16,1.58-4.63l0,0c-0.9-1.48-3.07-1.8-4.84-0.72
					c-1.77,1.08-2.48,3.16-1.58,4.63l0,0C1875.95,1615.09,1878.12,1615.41,1879.89,1614.33z"/>
				<path class="st0" d="M1438.76,1920.22c1.77-1.08,2.48-3.16,1.58-4.63l0,0c-0.9-1.48-3.07-1.8-4.84-0.72
					c-1.77,1.08-2.48,3.16-1.58,4.63l0,0C1434.82,1920.98,1436.99,1921.3,1438.76,1920.22z"/>
				<path class="st0" d="M831.88,2184.03c1.77-1.08,2.48-3.16,1.58-4.63l0,0c-0.9-1.48-3.07-1.8-4.84-0.72
					c-1.77,1.08-2.48,3.16-1.58,4.63l0,0C827.94,2184.79,830.11,2185.12,831.88,2184.03z"/>
				<path class="st0" d="M797.22,2257.21c1.77-1.08,2.48-3.16,1.58-4.63l0,0c-0.9-1.48-3.07-1.8-4.84-0.72
					c-1.77,1.08-2.48,3.16-1.58,4.63l0,0C793.28,2257.97,795.45,2258.3,797.22,2257.21z"/>
				<path class="st0" d="M870.17,2184.15c1.77-1.08,2.48-3.16,1.58-4.63l0,0c-0.9-1.48-3.07-1.8-4.84-0.72
					c-1.77,1.08-2.48,3.16-1.58,4.63l0,0C866.23,2184.91,868.4,2185.23,870.17,2184.15z"/>
				<path class="st0" d="M1050.27,2165.43c1.77-1.08,2.48-3.16,1.58-4.63l0,0c-0.9-1.48-3.07-1.8-4.84-0.72
					c-1.77,1.08-2.48,3.16-1.58,4.63l0,0C1046.33,2166.19,1048.49,2166.51,1050.27,2165.43z"/>
				<path class="st0" d="M1194.56,2101.56c1.77-1.08,2.48-3.16,1.58-4.63l0,0c-0.9-1.48-3.07-1.8-4.84-0.72s-2.48,3.16-1.58,4.63
					l0,0C1190.62,2102.32,1192.79,2102.64,1194.56,2101.56z"/>
			</g>
		</g>
		<g>
			<path class="st0" d="M2400.8,2494.22c0.7-5.66,0.94-10.44,0.73-14.36c-0.46-4.52-0.87-6.97-1.23-7.35c-0.44-1.31-1-2.4-1.67-3.27
				l-0.21-0.13c-0.9-0.52-1.65-0.84-2.24-0.98l-0.55,5.08l-1.11,4.87l-0.45,1.26c-3.6-53.38-7.69-82.11-12.27-86.17
				c-9.28-24.28-15.89-39.59-19.83-45.91c-13.65-26.11-26.31-46.93-37.95-62.45c-5.46-7.08-10.43-12.94-14.93-17.57
				c-11.81-10.62-23.22-21.07-34.26-31.38l-25.53-32.37c0.86,3.63,1.71,7.14,2.53,10.56c-5.13-4.94-10.18-9.84-15.12-14.71
				c-37.63-37.79-62.49-63.99-74.57-78.59c-16.71-16.4-30.07-29.14-40.08-38.23c-34.45-31.58-67.84-57.64-100.17-78.18
				c-13.58-13.61-28.58-24.55-44.99-32.79l-34.73-14.09c-0.55-2.04-1.1-4.09-1.66-6.16l-0.48-1.45l-48.8-13.8
				c-11.59-17.67-25.79-34.92-42.59-51.75l-0.36-0.72c0.09,0.21,0.19,0.42,0.28,0.64c-19.7-19.72-42.97-38.87-69.82-57.44
				l-33.82-21.94c-2.44-1.51-4.84-2.97-7.18-4.4c-32.4-19.75-55.24-32.21-68.52-37.36c-21.89-10.16-50.65-22.55-86.25-37.16
				l-3.9-6.94l-14.03-0.37c-17.68-7.16-36.84-14.81-57.51-22.95l-137.09-93.26c-31.05-18.53-58.69-32.97-82.91-43.34
				c-9.94-9.06-20.4-17.4-31.4-24.98l-72.16-4.84c-10.22-1.78-19-2.7-26.32-2.75c-18.38-0.93-32.22,1.38-41.54,6.92l0,0
				c-12.54-14.08-24.27-25.9-35.2-35.45c-0.11-2.21-17.32-14.11-51.64-35.7l-2.86-1.75c-1.46-1.06-3.33-2.29-5.63-3.69
				c-10.57-6.44-30.04-16.52-58.42-30.23c-26.92-11.85-51.77-19.4-74.56-22.66c-75.36-5.9-138.22-1.57-188.6,12.99
				c-14.25,1.95-30.51,9.65-48.77,23.06c1.28-4.5,2.8-8.96,4.59-13.37c-19.47,10.33-33.22,25.45-41.27,45.33
				c-2.72,2.7-5.47,5.48-8.26,8.37c-7.46,23.42-9.15,39.52-5.06,48.32c2.36,13.31,7.05,28.33,14.06,45.06
				c7.01,16.73,16.35,35.18,28.01,55.34c8.06,10.47,17.61,21.78,28.66,33.93c6.31,6.59,12.65,13.11,19,19.58
				c7.75,8.86,19.68,20.68,35.79,35.49c37.96,36.69,76.67,71.11,116.13,103.23l45.18,33.03c15.65,12.67,32.19,25.97,49.61,39.9
				c55.99,41.88,117.27,84.15,183.8,126.81c13.1,8.7,25.78,17.09,38.05,25.19c1.92,1.75,3.87,3.51,5.86,5.3
				c22.09,18.16,47.15,36.32,75.18,54.46c12.62,8.16,22.32,14.18,29.09,18.04l7.05,4l41.21,30.95
				c37.59,26.47,76.64,54.76,117.15,84.89c12.99,8.97,25.63,17.21,37.92,24.7c8.38,5.11,16.59,9.87,24.64,14.29
				c16.07,9.11,37.15,19.8,63.22,32.05c7.62,3.58,18.42,8.49,32.36,14.7l143.26,91.88c80.38,48.71,140.42,80.76,180.12,96.17
				c30.86,11.37,58.9,21.61,84.14,30.73c6.39,3.36,12.85,6.76,19.4,10.2c23.96,9.71,45.69,18.06,65.23,25.06
				c42.04,22.18,87.64,38.25,136.78,48.2c35.96,5.61,63.71,6.78,83.26,3.51l9.54-1.35c1.38-0.75,2.71-1.47,4.01-2.18
				c2.11-0.29,3.51-0.62,4.19-0.98c11.87-1.77,21.79-4.33,29.77-7.66l10.51-5.58c6.03-4.11,10.12-9,12.27-14.66l1.76-9.08
				c2.5-0.14,6.2-7.61,11.1-22.4c2.91-6.23,6.45-16.82,10.62-31.81c1.83-9.27,2.75-19.13,2.76-29.58l-1.11-10.89
				C2400.49,2496.67,2400.77,2495.02,2400.8,2494.22z M1794.8,2254.34l0.03,0.02c0.31,0.74,0.61,1.47,0.92,2.21
				c-1.96-1.38-3.93-2.76-5.9-4.15l-0.02-0.02C1791.48,2253.05,1793.14,2253.69,1794.8,2254.34z"/>
			<g>
				<path class="st0" d="M596.48,1464.72c-34.54,56.65-23.73,155.79,242.68,371.49c154.73,125.28,398.51,292.24,643.68,441.73
					c248.91,151.76,499.26,285.5,659.33,339.3c148.14,49.79,225.7,33.13,257.86-19.62c35.1-57.57,10.59-151.98-11.83-215.66
					c-43.3-122.99-88.52-156.62-133.66-189.46c-0.35-0.25-0.71-0.49-1.07-0.71c-0.38-0.23-0.76-0.44-1.15-0.63
					c-0.18-0.15-0.35-0.3-0.53-0.44c-7.5-5.92-13.99-10.8-19.49-14.68c-0.95-1.41-1.91-2.81-2.88-4.21
					c-8.49-12.26-17.67-24.31-38.47-48.07c-20.79-23.76-55.52-57.25-93.57-87.8c-38.06-30.54-79.43-58.07-124.07-82.46
					c-31.61-17.27-64.86-32.8-90.73-43.03c-0.95-1.4-1.89-2.77-2.83-4.08c-5.6-7.81-11.09-14.19-30.35-31.22
					c-19.26-17.03-53.9-44.02-90.86-68.41c-28.73-18.96-58.84-36.32-90.3-52.06c-10.59-6.11-19.63-10.93-27.1-14.47
					c-33.82-16.36-54.92-26.13-63.29-29.32c-6.27-2.5-14-5.37-23.13-8.6c-2.76-1.36-5.43-2.61-7.95-3.72
					c-6.18-2.8-14.08-5.43-23.68-7.9c-5.21-6.27-10.72-12.45-16.55-18.54c-8.67-9.05-18.75-18.54-62.1-50.27
					c-31.62-23.14-63.13-42.93-94.45-59.34c-1.67-0.95-3.34-1.91-5.03-2.86c-41.71-24.35-92.46-43.33-152.26-56.93
					c-41.29-6.54-70.5-8.18-87.65-4.94c-5.78-5.83-11.75-11.41-17.92-16.75c-7.93-6.86-16.36-13.47-33.07-24.53
					c-16.71-11.06-35.24-21.06-55.47-29.98c-20.23-8.92-42.14-16.78-65.73-23.57c-23.6-6.8-48.99-12.5-65.55-14.4
					c-6.8-0.78-13.39-1.26-19.8-1.48c-13.54-1.37-27.54-1.88-41.99-1.53c-23.37-0.52-45.18,3.62-65.43,12.37
					c-2.02-1.72-3.92-3.08-5.7-4.08l-0.13-0.08c-1.82-1.09-4.92-2.09-9.28-3c-4.57,0.07-10,0.7-16.28,1.89
					c-3.09,0.85-6.07,1.69-8.96,2.54c-21.46,2.31-44.24,8.83-70.7,32.21c-2.17,1.6-4.44,3.31-6.8,5.15l0.4,0.78
					c-2.81,2.72-5.66,5.62-8.56,8.74C608.22,1448.39,601.9,1455.83,596.48,1464.72z M801.01,1477.15
					c-10.68-10.8-24.94-29.74-42.75-56.81c13.46-4.07,23.39-6.32,29.75-6.76c16.2-0.89,34.79,0.12,55.79,3.04
					c17.76,3.45,28.82,6.04,33.17,7.77c13.74,6.54,23.16,12.75,28.24,18.63c5.8,6.01,12.85,15.3,21.16,27.87
					c26.15,43.52,40.69,68.45,43.62,74.78c7.45,15.63,13.4,30.46,17.87,44.49l10.99,47.17c0.33,2.14-2.8,2.2-9.36,0.16l-27.02-14.18
					c-3.08-2.18-6.11-4.32-9.09-6.44c-2.01-1.76-4.03-3.55-6.08-5.38c-19.28-17.28-53.93-49.72-103.94-97.32
					C819.69,1493.92,805.57,1481.59,801.01,1477.15z M1136.3,1534.13c38.92,1,77.39,7.21,115.39,18.66
					c37.94,21.14,67.07,48.2,87.38,81.19c15.28,24.64,27.51,52.07,36.69,82.3c14.09,48.77,23.34,85.57,27.76,110.44
					c0,11.67-1.12,20.62-3.37,26.81c-1.79,5.29-4.16,10.03-7.1,14.23c-1.53,1.44-2.95,2.8-4.28,4.09
					c-4.08,0.13-8.49-0.58-13.25-2.19c-1.01-0.35-2.07-0.86-3.17-1.48c-7.34-5.39-15.46-13.95-24.37-25.69
					c-18.72-23.26-49.03-64.51-90.92-123.73c-2.02-3.23-4.25-6.78-6.72-10.74c-18.25-29.21-34.94-55.52-50.01-78.91
					c-15.06-23.4-28.49-43.9-40.37-61.47C1150.93,1554.3,1142.67,1542.66,1136.3,1534.13z M1588.14,1820.6
					c-14.15-35.19-31.06-78-37.46-90.06c2.08,0.91,4.7,2.03,7.88,3.38c15.14,5.08,25.82,9.15,32.05,12.19l58.62,29.57
					c31.42,23.07,54.26,47.1,68.48,72.1c5.62,10.72,9.6,23.01,11.96,36.87c-1.19,28.17,5.4,72.97,19.76,134.39l1.42,50.58
					c-1.41-0.3-3.29-1.54-5.67-3.75c-8.9-6.37-27.56-26.07-56-59.11c-12.22-15.22-21.78-27.6-28.69-37.13l-24.42-36.61
					c-3.31-6.51-7.48-15.5-12.53-27.03C1614.52,1885.4,1602.74,1856.91,1588.14,1820.6z M1951.75,2062.46
					c-10.41-25.88-22.48-56.52-32.46-80.59c-5.51-13.27-9.89-23.01-13.71-30.9c37.22,19.09,64.25,34.89,81.08,47.4
					c20.01,16.62,33.19,28.71,39.55,36.29c9.25,9.94,17.47,20.1,24.65,30.46l21.3,40.8l10.6,23.78
					c5.22,12.28,9.89,29.61,14.03,51.99c1.04,8.52,1.85,16.61,2.44,24.29c0.09,10.94-0.03,23.71-0.38,38.34
					c-2.22,17.34-7,24.5-14.33,21.48c-12.22-6.15-27.6-20.6-46.14-43.37c-9.45-11.42-19.73-24.8-30.81-40.09
					c-4.26-7.15-7.94-13.78-11.23-19.89c-4.93-9.16-10.67-20.52-17.96-36.79C1971.06,2109.42,1962.16,2088.34,1951.75,2062.46z
					 M2305.78,2376.93c-7.7-29.32-16.77-63.16-24.08-88.33c-9.01-31.06-14.94-48.49-19.69-60.11c2.51,2.54,3.93,4.21,4.25,5
					c7.44,8.65,13.66,19.62,18.64,32.91c3.6,10.16,5.91,18.36,6.94,24.6L2305.78,2376.93z M618.79,1478.32
					c4.52-7.41,9.92-13.83,15.38-19.7c0.61-0.65,1.21-1.3,1.81-1.92l0.04,0.02c4.05-7.09,7.13-11.43,9.24-13.02
					c1.64-1.7,5-3.88,10.08-6.53c1.69-0.86,3.33-1.69,4.92-2.46c0.91-0.44,1.85-0.89,2.84-1.35c0.04-0.02,0.08-0.03,0.11-0.05
					l0.04,0.02c0.11-0.07,0.21-0.14,0.32-0.2c5.12-2.39,9.67-4.27,13.62-5.62c24.44-6.99,39.49-9.38,45.17-7.17
					c0.72,0.42,1.16,0.94,1.32,1.54c1.99,1.01,3.57,2.04,4.73,3.09c1.45,1.3,2.73,2.54,3.84,3.75c8.95,11.7,17.14,21.99,24.58,30.88
					c1.23,1.86,3.81,4.51,7.76,7.97c12.85,12.03,24.04,22.38,33.55,31.07c11.67,9.73,21.85,18.67,30.52,26.82l14.61,11.72
					l48.98,42.03l5.39,5.01c0.03,0.02,0.06,0.04,0.08,0.06c26.08,24.15,40.52,37.3,43.31,39.43c15.92,12.94,28.38,22.2,37.37,27.77
					c1.02,0.67,1.95,1.25,2.78,1.75c0.01,0.01,0.02,0.01,0.03,0.02c0.02,0.01,0.03,0.02,0.05,0.03c1.16,0.7,2.14,1.24,2.93,1.62
					c1.21,0.6,2.35,1.16,3.46,1.7c9.2,4.62,15.94,7.28,20.23,7.97c0.04,0,0.07-0.01,0.11-0.01c0.01,0,0.02,0.01,0.04,0.01l0.74-0.07
					c0.41-0.03,0.82-0.07,1.21-0.12l1.03-0.1l-0.06-0.04c3.37-0.57,5.89-1.76,7.51-3.6c4.66-7.88,3.17-24.33-4.46-49.34
					c-10.93-36.47-21.54-64.25-31.84-83.33c-9.26-17.44-16.97-31.01-23.12-40.71c-4.48-7.29-17.18-25.33-38.12-54.11
					c-0.9-1.51-1.05-2.37-0.47-2.57c14.23,2.15,36.55,9.17,66.97,21.04c13.12,5.53,28.25,13.66,45.37,24.37
					c6.5,4.37,12.81,9.02,18.95,13.95l64.06,54.91c1.04,1.45,2.11,2.96,3.22,4.55c7.86,11.22,19.29,27.54,32.64,46.68
					c13.35,19.14,28.51,41.14,45.5,66c6.22,9.1,12.68,18.59,19.01,27.88c16.55,28.44,38.87,62.3,66.96,101.58
					c62.48,81.38,100.95,118.23,115.4,110.56c14.28-9.32,23.42-26.44,27.42-51.35c3.17-16.93,2.14-42.99-3.09-78.19
					c-9.41-50.59-25.77-95.31-49.08-134.18c-8.76-17.85-19.87-34.13-33.33-48.85c9.4,4.96,18.77,10.23,28.1,15.86
					c58.09,35.92,95.91,64.52,113.43,85.79c24.22,25.05,43.27,49.52,57.19,73.42c11.56,25.77,28.1,63.92,41.87,94.53
					c13.96,31.04,25.03,54.36,33.26,70.1c8.24,15.75,14.08,24.59,19.25,31.38c5.17,6.79,14.61,20.21,26.36,35.62
					c4.84,6.36,10.09,13.06,15.74,20.09c6.99,10.38,25.97,34.08,56.94,71.12c7.49,9.13,13.27,14.56,17.35,16.29
					c4.26,3.09,9.91,0.99,16.95-6.32c4.42-4.36,6.7-11.15,6.83-20.38c-0.04-15.73-1.51-31.69-4.35-47.88
					c-1.96-21.65-5.21-44.98-9.76-70c0.17-55.18-1.24-83.46-4.22-84.83c-7.56-21.78-17.54-41-29.91-57.68
					c14.78,8.56,27.34,16.34,37.68,23.35c29.97,19.6,55.1,37.79,75.39,54.57c6.51,5.91,10.87,10.08,12.12,11.5
					c3.71,4.24,8.2,10.4,13.4,18.29c5.2,7.89,11.01,17.5,17.27,28.82c6.26,11.32,12.75,23.81,26.5,55.78
					c13.75,31.97,26.01,59.32,36.56,81.96c10.56,22.64,19.47,40.57,26.75,53.86c4.99,9.11,9.11,15.88,13.2,22.49
					c10.69,19.71,22.28,37.67,34.79,53.84c47.43,57.75,74.64,82.56,81.61,74.43c14.13-16.98,17.67-61.34,10.63-133.09
					c-0.78-11.21-2.34-22.18-4.67-32.9c0.33,0.5,0.78,0.96,1.35,1.3c1.77,1.08,3.94,0.76,4.84-0.72l0,0
					c0.9-1.48,0.19-3.55-1.58-4.63c-1.77-1.08-3.94-0.76-4.84,0.72l0,0c-0.17,0.27-0.26,0.57-0.32,0.87
					c-1.48-6.46-3.25-12.84-5.3-19.12c-1.63-6.77-3.54-13.65-5.73-20.65c-4.89-9.45-9.65-18.36-14.26-26.73
					c14.46,11.33,29.6,23.65,45.43,37c29.58,26.56,56.52,55.62,80.8,87.18c16.35,21.39,29.96,41.11,40.83,59.15
					c5.9,13.89,15.18,39.6,34.99,100.15c30.33,92.67,31.87,96.82,34,101.69c1.33,3.06,2.92,6.4,4.75,10.02
					c0.49,1.19,0.98,2.39,1.47,3.56c4.86,9.99,9.64,19.03,14.34,27.14c1.75,2.75,3.08,3.53,4,2.33c1.23-3.79,1.19-10.6-0.12-20.44
					l-7.66-36.61c-2.32-34.97-6.94-68.68-13.86-101.15c-4.3-25.57-9.76-47.14-16.39-64.71c20.34,25.6,40.68,61.96,61.05,119.82
					c22.79,64.75,42.97,149.51,13.23,198.29l0,0c-24.16,39.63-85.56,60.41-230.48,11.71c-157.54-52.95-405.77-185.6-653.05-336.37
					c-243.57-148.5-486.2-314.57-640.31-439.35C587.28,1604.15,594.03,1518.93,618.79,1478.32L618.79,1478.32z"/>
				<path class="st0" d="M789.73,1724.5c56.72,47.45,138.35,107.13,244.9,179.02c56.16,37.97,128.12,84.33,215.89,139.06
					c-17.24-11.15-35.04-22.7-53.43-34.69c-123.72-80.85-190.81-126.46-201.25-136.83l1.13,0.54
					c20.21,10.34,65.79,36.96,136.75,79.88c126.34,76.63,248.29,151.09,365.85,223.39c28.78,17.54,56.08,34.03,81.88,49.46
					c61.29,36.62,114.06,67.3,158.3,92.05c38.44,21.71,73.11,40.82,103.99,57.33c52.72,27.82,89.05,46.48,108.98,55.96
					c27.48,13.48,52.53,25.42,75.13,35.81l159.17,72.16c-79.25-25.35-165.13-59.3-257.64-101.83
					c58.1,29.98,109.61,54.9,154.52,74.77c131.04,57.52,223.85,72.27,278.43,44.25l5.91-2.49c-13.89,65.14-83.85,75.86-209.9,32.16
					c-165.78-57.44-370.18-159.95-613.2-307.55c-147.96-90.41-282.58-177.37-403.85-260.88
					c-83.43-57.15-158.55-110.79-225.38-160.91c-33.04-24.81-62.88-47.98-89.52-69.51l-41.8-34.73
					c-73.81-64.63-119.22-112.56-136.23-143.8c-12.55-21.32-19.72-38.15-21.5-50.49c-6.09-26.86-6.04-47.16,0.16-60.9
					C616.27,1552.14,670.51,1628.4,789.73,1724.5z"/>
				<path class="st0" d="M2183.72,2226.52c-3.1-1.89-4.34-5.52-2.76-8.11l0,0c1.58-2.59,5.37-3.15,8.48-1.26
					c3.1,1.89,4.34,5.52,2.76,8.11l0,0C2190.61,2227.85,2186.82,2228.42,2183.72,2226.52z"/>
				<path class="st0" d="M2193.26,2339.59c-3.1-1.89-4.34-5.52-2.76-8.11l0,0c1.58-2.59,5.37-3.15,8.48-1.26
					c3.1,1.89,4.34,5.52,2.76,8.11l0,0C2200.16,2340.92,2196.37,2341.48,2193.26,2339.59z"/>
				<path class="st0" d="M1809.96,1991.14c-3.1-1.89-4.34-5.52-2.76-8.11l0,0c1.58-2.59,5.37-3.15,8.48-1.26
					c3.1,1.89,4.34,5.52,2.76,8.11l0,0C1816.85,1992.47,1813.06,1993.03,1809.96,1991.14z"/>
				<path class="st0" d="M1893.91,2159.16c-3.1-1.89-4.34-5.52-2.76-8.11l0,0c1.58-2.59,5.37-3.15,8.48-1.26
					c3.1,1.89,4.34,5.52,2.76,8.11l0,0C1900.81,2160.49,1897.01,2161.05,1893.91,2159.16z"/>
				<path class="st0" d="M1850.57,2087.25c-3.1-1.89-4.34-5.52-2.76-8.11l0,0c1.58-2.59,5.37-3.15,8.48-1.26
					c3.1,1.89,4.34,5.52,2.76,8.11l0,0C1857.47,2088.57,1853.67,2089.14,1850.57,2087.25z"/>
				<path class="st0" d="M1441.16,1770.14c-3.1-1.89-4.34-5.52-2.76-8.11l0,0c1.58-2.59,5.37-3.15,8.48-1.26
					c3.1,1.89,4.34,5.52,2.76,8.11l0,0C1448.06,1771.47,1444.26,1772.03,1441.16,1770.14z"/>
				<path class="st0" d="M1523.53,1943.51c-3.1-1.89-4.34-5.52-2.76-8.11l0,0c1.58-2.59,5.37-3.15,8.48-1.26
					c3.1,1.89,4.34,5.52,2.76,8.11l0,0C1530.43,1944.84,1526.63,1945.4,1523.53,1943.51z"/>
				<path class="st0" d="M1021.13,1558.76c-3.1-1.89-4.34-5.52-2.76-8.11l0,0c1.58-2.59,5.37-3.15,8.48-1.26
					c3.1,1.89,4.34,5.52,2.76,8.11l0,0C1028.03,1560.09,1024.23,1560.65,1021.13,1558.76z"/>
				<path class="st0" d="M1121.5,1691.79c-3.1-1.89-4.34-5.52-2.76-8.11l0,0c1.58-2.59,5.37-3.15,8.48-1.26
					c3.1,1.89,4.34,5.52,2.76,8.11l0,0C1128.4,1693.12,1124.6,1693.68,1121.5,1691.79z"/>
				<path class="st0" d="M1804.7,1918.72c-2.99-1.82-4.18-5.32-2.66-7.81l0,0c1.52-2.49,5.17-3.03,8.16-1.21
					c2.99,1.82,4.18,5.32,2.66,7.81l0,0C1811.34,1920,1807.68,1920.54,1804.7,1918.72z"/>
				<path class="st0" d="M2140.44,2256.3c-2.99-1.82-4.18-5.32-2.66-7.81l0,0c1.52-2.49,5.17-3.03,8.16-1.21s4.18,5.32,2.66,7.81
					l0,0C2147.08,2257.58,2143.43,2258.12,2140.44,2256.3z"/>
				<path class="st0" d="M2238.43,2311.84c-2.99-1.82-4.18-5.32-2.66-7.81l0,0c1.52-2.49,5.17-3.03,8.16-1.21
					c2.99,1.82,4.18,5.32,2.66,7.81l0,0C2245.08,2313.12,2241.42,2313.66,2238.43,2311.84z"/>
				<path class="st0" d="M1525.08,1865.68c-2.99-1.82-4.18-5.32-2.66-7.81l0,0c1.52-2.49,5.17-3.03,8.16-1.21
					c2.99,1.82,4.18,5.32,2.66,7.81l0,0C1531.72,1866.96,1528.07,1867.51,1525.08,1865.68z"/>
				<path class="st0" d="M1640.73,2053.63c-2.99-1.82-4.18-5.32-2.66-7.81l0,0c1.52-2.49,5.17-3.03,8.16-1.21
					c2.99,1.82,4.18,5.32,2.66,7.81l0,0C1647.37,2054.91,1643.72,2055.45,1640.73,2053.63z"/>
				<path class="st0" d="M1224.04,1837.7c-2.99-1.82-4.18-5.32-2.66-7.81l0,0c1.52-2.49,5.17-3.03,8.16-1.21
					c2.99,1.82,4.18,5.32,2.66,7.81l0,0C1230.69,1838.98,1227.03,1839.52,1224.04,1837.7z"/>
				<path class="st0" d="M1116.69,1635.4c-2.99-1.82-4.18-5.32-2.66-7.81l0,0c1.52-2.49,5.17-3.03,8.16-1.21
					c2.99,1.82,4.18,5.32,2.66,7.81l0,0C1123.33,1636.68,1119.68,1637.22,1116.69,1635.4z"/>
				<path class="st0" d="M722.47,1516.04c-2.99-1.82-4.18-5.32-2.66-7.81l0,0c1.52-2.49,5.17-3.03,8.16-1.21
					c2.99,1.82,4.18,5.32,2.66,7.81l0,0C729.11,1517.32,725.46,1517.87,722.47,1516.04z"/>
				<path class="st0" d="M1024.54,1722.03c-2.99-1.82-4.18-5.32-2.66-7.81l0,0c1.52-2.49,5.17-3.03,8.16-1.21
					c2.99,1.82,4.18,5.32,2.66,7.81l0,0C1031.18,1723.31,1027.53,1723.85,1024.54,1722.03z"/>
				<path class="st0" d="M1214.16,1763.04c-2.99-1.82-4.18-5.32-2.66-7.81l0,0c1.52-2.49,5.17-3.03,8.16-1.21
					c2.99,1.82,4.18,5.32,2.66,7.81l0,0C1220.81,1764.32,1217.15,1764.86,1214.16,1763.04z"/>
				<path class="st0" d="M1898.74,2056.43c-1.77-1.08-2.48-3.16-1.58-4.63l0,0c0.9-1.48,3.07-1.8,4.84-0.72
					c1.77,1.08,2.48,3.16,1.58,4.63l0,0C1902.68,2057.19,1900.51,2057.51,1898.74,2056.43z"/>
				<path class="st0" d="M1859.11,1983.84c-1.77-1.08-2.48-3.16-1.58-4.63l0,0c0.9-1.48,3.07-1.8,4.84-0.72
					c1.77,1.08,2.48,3.16,1.58,4.63l0,0C1863.05,1984.6,1860.88,1984.92,1859.11,1983.84z"/>
				<path class="st0" d="M1816.39,2053.4c1.77,1.08,2.48,3.16,1.58,4.63l0,0c-0.9,1.48-3.07,1.8-4.84,0.72
					c-1.77-1.08-2.48-3.16-1.58-4.63l0,0C1812.45,2052.64,1814.62,2052.32,1816.39,2053.4z"/>
				<path class="st0" d="M1492.4,1754c-1.77-1.08-2.48-3.16-1.58-4.63l0,0c0.9-1.48,3.07-1.8,4.84-0.72
					c1.77,1.08,2.48,3.16,1.58,4.63l0,0C1496.34,1754.76,1494.17,1755.08,1492.4,1754z"/>
				<path class="st0" d="M1409.26,1660.8c-1.77-1.08-2.48-3.16-1.58-4.63l0,0c0.9-1.48,3.07-1.8,4.84-0.72s2.48,3.16,1.58,4.63l0,0
					C1413.2,1661.56,1411.03,1661.88,1409.26,1660.8z"/>
				<path class="st0" d="M1451.86,1844.13c-1.77-1.08-2.48-3.16-1.58-4.63l0,0c0.9-1.48,3.07-1.8,4.84-0.72
					c1.77,1.08,2.48,3.16,1.58,4.63l0,0C1455.8,1844.89,1453.63,1845.21,1451.86,1844.13z"/>
				<path class="st0" d="M1102.75,1733.54L1102.75,1733.54c-0.9,1.48-3.07,1.8-4.84,0.72c-1.77-1.08-2.48-3.16-1.58-4.63l0,0
					c0.9-1.48,3.07-1.8,4.84-0.72C1102.94,1729.99,1103.65,1732.06,1102.75,1733.54z"/>
				<path class="st0" d="M1051.13,1598.75c-1.77-1.08-2.48-3.16-1.58-4.63l0,0c0.9-1.48,3.07-1.8,4.84-0.72
					c1.77,1.08,2.48,3.16,1.58,4.63l0,0C1055.07,1599.51,1052.9,1599.83,1051.13,1598.75z"/>
				<path class="st0" d="M980.89,1466.1c-1.77-1.08-2.48-3.16-1.58-4.63l0,0c0.9-1.48,3.07-1.8,4.84-0.72s2.48,3.16,1.58,4.63l0,0
					C984.83,1466.86,982.67,1467.18,980.89,1466.1z"/>
				<path class="st0" d="M1120.11,1614.33c-1.77-1.08-2.48-3.16-1.58-4.63l0,0c0.9-1.48,3.07-1.8,4.84-0.72
					c1.77,1.08,2.48,3.16,1.58,4.63l0,0C1124.05,1615.09,1121.88,1615.41,1120.11,1614.33z"/>
				<path class="st0" d="M1561.24,1920.22c-1.77-1.08-2.48-3.16-1.58-4.63l0,0c0.9-1.48,3.07-1.8,4.84-0.72
					c1.77,1.08,2.48,3.16,1.58,4.63l0,0C1565.18,1920.98,1563.01,1921.3,1561.24,1920.22z"/>
				<path class="st0" d="M2168.12,2184.03c-1.77-1.08-2.48-3.16-1.58-4.63l0,0c0.9-1.48,3.07-1.8,4.84-0.72
					c1.77,1.08,2.48,3.16,1.58,4.63l0,0C2172.06,2184.79,2169.89,2185.12,2168.12,2184.03z"/>
				<path class="st0" d="M2202.77,2257.21c-1.77-1.08-2.48-3.16-1.58-4.63l0,0c0.9-1.48,3.07-1.8,4.84-0.72
					c1.77,1.08,2.48,3.16,1.58,4.63l0,0C2206.72,2257.97,2204.55,2258.3,2202.77,2257.21z"/>
				<path class="st0" d="M2129.83,2184.15c-1.77-1.08-2.48-3.16-1.58-4.63l0,0c0.9-1.48,3.07-1.8,4.84-0.72
					c1.77,1.08,2.48,3.16,1.58,4.63l0,0C2133.77,2184.91,2131.6,2185.23,2129.83,2184.15z"/>
				<path class="st0" d="M1949.73,2165.43c-1.77-1.08-2.48-3.16-1.58-4.63l0,0c0.9-1.48,3.07-1.8,4.84-0.72
					c1.77,1.08,2.48,3.16,1.58,4.63l0,0C1953.67,2166.19,1951.51,2166.51,1949.73,2165.43z"/>
				<path class="st0" d="M1805.44,2101.56c-1.77-1.08-2.48-3.16-1.58-4.63l0,0c0.9-1.48,3.07-1.8,4.84-0.72s2.48,3.16,1.58,4.63l0,0
					C1809.38,2102.32,1807.21,2102.64,1805.44,2101.56z"/>
			</g>
		</g>
	</g>
	<g>
		<g>
			<g>
				<g>
					<rect x="664.18" y="1792.23" class="st0" width="1671.65" height="305.8"/>
				</g>
			</g>
			<g>
				<g>
					<path class="st0" d="M2335.82,2112.21H664.18c-9.11,0-16.5-6.34-16.5-14.17c0-7.83,7.39-14.17,16.5-14.17h1671.65
						c9.11,0,16.5,6.34,16.5,14.17C2352.32,2105.86,2344.94,2112.21,2335.82,2112.21z"/>
				</g>
			</g>
			<g>
				<g>
					<path class="st0" d="M2335.82,1806.4H664.18c-9.11,0-16.5-6.34-16.5-14.17s7.39-14.17,16.5-14.17h1671.65
						c9.11,0,16.5,6.34,16.5,14.17S2344.94,1806.4,2335.82,1806.4z"/>
				</g>
			</g>
		</g>
		<g>
			<path class="st0" d="M880.58,2046.44c-5.96,0-11.25-1.45-15.85-4.34c-4.61,2.89-8.88,4.34-12.8,4.34c-3.93,0-7.16-0.34-9.69-1.02
				c-2.53-0.68-4.74-1.6-6.64-2.78c-3.89-2.35-5.83-5.28-5.83-8.81c0-1.81,0.5-3.39,1.49-4.74c1.99,1.54,4.52,2.3,7.59,2.3
				c8.04,0,13.59-3.43,16.67-10.3v-66.26c0-4.06-0.86-7.18-2.57-9.35c-2.71-3.52-7.36-6.86-13.96-10.03
				c6.05-2.8,10.03-5.24,11.92-7.32c3.07-3.52,4.61-7.45,4.61-11.79v-57.18c-3.07-6.95-8.63-10.43-16.67-10.43
				c-3.07,0-5.6,0.77-7.59,2.3c-1-1.35-1.49-2.91-1.49-4.67c0-1.76,0.52-3.41,1.56-4.95c1.04-1.53,2.46-2.84,4.27-3.93
				c4.15-2.53,8.92-3.79,14.29-3.79c5.37,0,10.32,1.49,14.84,4.47c4.7-2.98,9.94-4.47,15.72-4.47c6.32,0,11.83,1.67,16.53,5.01
				c10.03-4.24,20.01-6.37,29.95-6.37c9.94,0,18.99,0.97,27.17,2.91c8.17,1.94,15.56,4.67,22.15,8.2
				c14.36,7.59,23.31,17.43,26.83,29.54c1.99,6.69,6.28,11.65,12.87,14.9c-7.32,5.06-11.83,10.84-13.55,17.34
				c-3.79,14.27-11.47,23.58-23.03,27.91c16.98,4.7,28.05,15.81,33.2,33.33c1.81,6.23,6.1,11.34,12.87,15.31
				c-6.96,3.88-11.61,9.76-13.96,17.61c-2.35,7.86-6.48,14.93-12.4,21.21c-5.92,6.28-12.8,11.45-20.66,15.51
				c-15.18,7.77-32.29,11.65-51.35,11.65c-11.38,0-21.54-2.03-30.49-6.1C891.87,2044.86,886.54,2046.44,880.58,2046.44z
				 M868.52,2007.82c4.52-1.71,7-7.63,7.45-17.75c0.54-10.12,0.81-24.12,0.81-42s-0.02-29.79-0.07-35.7
				c-0.05-5.92-0.12-10.68-0.2-14.29c-0.27-10.66-1.29-17.09-3.05-19.31c-1.76-2.21-3.41-3.68-4.95-4.4
				c0,31.44-0.54,49.32-1.63,53.66c-1.27,3.61-4.34,6.19-9.21,7.72c5.42,1.9,8.49,4.2,9.21,6.91c1.08,4.34,1.63,20.19,1.63,47.56
				V2007.82z M930.71,1926.66c7.95,0,13.59-1.9,16.94-5.69c3.52-3.88,5.28-10.57,5.28-20.05v-31.3c0-5.51-2.89-10.16-8.67-13.96
				c-5.06-3.34-9.73-5.01-14.02-5.01c-4.29,0-7.81,0.52-10.57,1.56c-2.76,1.04-5.22,2.46-7.38,4.27c-4.61,3.79-6.91,8.36-6.91,13.69
				v56.5H930.71z M905.38,2008.36c0,6.32,2.39,11.52,7.18,15.58c4.61,3.79,10.12,5.69,16.53,5.69c6.23,0,11.47-1.35,15.72-4.06
				c8.13-5.33,12.2-11.43,12.2-18.29v-39.7c0-8.22-2.67-14.41-7.99-18.56c-4.52-3.52-10.43-5.28-17.75-5.28h-25.88V2008.36z
				 M960.66,1853.76c3.07,6.87,4.61,16.89,4.61,30.08c0,19.42-1.27,32.02-3.79,37.8c3.79-0.72,7-4.38,9.62-10.97
				c0.99-2.44,1.74-5.01,2.24-7.72c0.5-2.71,0.9-4.81,1.22-6.3c0.32-1.49,0.79-2.78,1.42-3.86c1.36-2.26,3.79-3.97,7.32-5.15
				c-3.61-1.17-5.87-2.44-6.78-3.79c-1.17-1.53-2.12-4.33-2.84-8.4c-0.72-4.06-1.58-7.38-2.58-9.96c-0.99-2.57-2.08-4.67-3.25-6.3
				C965.58,1855.93,963.19,1854.13,960.66,1853.76z M966.08,1947.93c2.17,4.88,3.25,16.17,3.25,33.87c0,22.4-0.81,35.55-2.44,39.43
				c1.9-0.36,3.84-2.66,5.83-6.91c1.99-4.25,3.39-8.63,4.2-13.14c0.81-4.52,1.38-7.59,1.69-9.21c0.32-1.63,0.79-3.07,1.42-4.34
				c1.44-2.71,3.88-4.65,7.32-5.83c-5.42-1.71-8.6-5.15-9.55-10.3c-0.95-5.15-1.88-9.12-2.78-11.92c-0.9-2.8-1.85-5.01-2.85-6.64
				C970.46,1950.06,968.43,1948.39,966.08,1947.93z"/>
			<path class="st0" d="M1069.57,2042.78c-3.34,2.44-7.16,3.66-11.45,3.66c-4.29,0-7.72-1.11-10.3-3.32
				c-2.57-2.21-3.86-4.76-3.86-7.66c0-2.89,0.45-5.01,1.35-6.37c2.62,1.54,5.85,2.3,9.69,2.3c3.84,0,6.73-0.52,8.67-1.56
				c1.94-1.04,3.81-2.46,5.62-4.27l19.24-57.04l2.71-9.35c0.81-2.8,1.22-5.37,1.22-7.72c0-8.22-3.89-13.46-11.65-15.72
				c7.13-2.71,12.15-5.64,15.04-8.81c4.52-4.97,8.08-11.52,10.7-19.65l14.91-50c-2.89-3.88-6.32-5.83-10.3-5.83
				c-3.98,0-7.68,0.86-11.11,2.57c-0.9-1.63-1.36-3.46-1.36-5.49c0-2.03,0.43-3.95,1.29-5.76c0.86-1.81,2.05-3.39,3.59-4.74
				c3.43-2.89,8.31-4.34,14.63-4.34c6.32,0,11.7,1.9,16.12,5.69c4.52-3.79,10.14-5.69,16.87-5.69c6.73,0,12.08,1.81,16.06,5.42
				c5.78-3.61,11.65-5.42,17.61-5.42s10.59,1.13,13.89,3.39c3.3,2.26,4.95,5.33,4.95,9.21c0,1.81-0.54,3.39-1.63,4.74
				c-2.08-1.53-4.52-2.3-7.32-2.3c-6.05,0-9.98,4.11-11.79,12.33l17.34,55.42c2.17,6.96,7.59,12.38,16.26,16.26
				c2.44,1.08,4.92,2.08,7.45,2.98c-9.03,2.98-13.55,7.45-13.55,13.41c0,2.26,0.36,4.25,1.08,5.96l25.88,69.37
				c3.97,4.16,7.99,6.23,12.06,6.23c4.06,0,7.23-0.77,9.48-2.3c0.99,0.72,1.49,2.08,1.49,4.07c0,1.99-0.32,3.82-0.95,5.49
				c-0.63,1.67-1.63,3.14-2.98,4.4c-2.89,2.71-7.14,4.06-12.74,4.06c-5.6,0-10.48-1.54-14.63-4.61c-4.7,3.07-10,4.61-15.92,4.61
				c-5.92,0-11-1.49-15.24-4.47c-4.06,2.98-8.85,4.47-14.36,4.47c-5.51,0-10.07-1.15-13.69-3.46c-3.61-2.3-5.51-5.58-5.69-9.82
				c0-2.53,0.5-4.11,1.49-4.74c2.44,1.54,4.92,2.3,7.45,2.3c5.33,0,9.08-1.08,11.25-3.25l-10.3-34.55h-73.3l-8.94,29.94
				c3.7,5.69,8.2,8.54,13.48,8.54s9.24-0.77,11.86-2.3c0.99,1.63,1.49,3.86,1.49,6.71c0,2.85-1.4,5.33-4.2,7.45
				c-2.8,2.12-6.42,3.18-10.84,3.18c-4.43,0-8.49-1.13-12.2-3.39c-3.25,2.26-6.98,3.39-11.18,3.39S1072.55,2045.22,1069.57,2042.78z
				 M1168.62,1974.63l-31.44-104.47l-30.89,104.47H1168.62z M1194.5,2007.82c1.63,0,2.44-1.81,2.44-5.42
				c0-6.32-0.95-12.47-2.84-18.43l-5.15-15.85c-3.61-11.92-5.42-19.42-5.42-22.49c-0.09-5.06,2.12-8.4,6.64-10.03
				c-6.23-1.26-10.03-3.21-11.38-5.83c-0.63-1.08-1.15-1.94-1.56-2.57c-0.41-0.63-0.81-1.38-1.22-2.24
				c-0.41-0.86-0.88-1.96-1.42-3.32c-0.54-1.35-1.27-3.3-2.17-5.83l-8.4-25.34c-1.99-6.32-4.92-11.11-8.81-14.36
				c-1.17-0.99-2.26-1.58-3.25-1.76c6.05,21.86,10.03,35.86,11.92,42c13.1,40.29,20.96,64.18,23.58,71.68L1194.5,2007.82z"/>
			<path class="st0" d="M1353.68,2042.24c-4.52,2.8-9.62,4.2-15.31,4.2c-5.69,0-10.57-1.45-14.63-4.34
				c-4.61,2.89-8.85,4.34-12.74,4.34c-3.88,0-7.09-0.34-9.62-1.02c-2.53-0.68-4.74-1.6-6.64-2.78c-3.88-2.35-5.83-5.28-5.83-8.81
				c0-1.81,0.5-3.39,1.49-4.74c1.99,1.54,4.52,2.3,7.59,2.3c8.04,0,13.59-3.43,16.67-10.3v-66.26c0-7.05-3.52-12.37-10.57-15.99
				l-5.96-3.12c8.04-3.7,13.05-7.72,15.04-12.06c0.99-1.99,1.49-4.42,1.49-7.32v-57.18c-3.07-6.95-8.63-10.43-16.67-10.43
				c-3.07,0-5.6,0.77-7.59,2.3c-1-1.35-1.49-2.91-1.49-4.67c0-1.76,0.52-3.41,1.56-4.95c1.04-1.53,2.46-2.84,4.27-3.93
				c4.15-2.53,8.88-3.79,14.16-3.79s10.23,1.45,14.84,4.34c4.07-2.89,8.96-4.34,14.7-4.34c5.74,0,10.82,1.45,15.24,4.34
				c4.25-2.89,8.99-4.34,14.23-4.34c7.68,0,13.19,2.57,16.53,7.72c0.99,1.63,1.49,3.34,1.49,5.15c0,1.81-0.54,3.3-1.63,4.47
				c-1.99-1.53-4.47-2.3-7.45-2.3c-6.96,0-11.61,3.39-13.96,10.16v69.64l62.33-73.84c0-4.07-2.26-6.1-6.77-6.1
				c-4.52,0-8.27,0.86-11.25,2.57c-1-1.63-1.49-3.73-1.49-6.3c0-2.57,1.35-5.08,4.06-7.52c2.71-2.44,6.48-3.66,11.31-3.66
				c4.83,0,8.83,1.17,11.99,3.52c3.16-2.35,6.68-3.52,10.57-3.52c3.88,0,7.36,1.22,10.43,3.66c3.07-2.44,6.19-3.66,9.35-3.66
				c3.16,0,5.67,0.29,7.52,0.88c1.85,0.59,3.46,1.38,4.81,2.37c3.16,2.35,4.74,4.97,4.74,7.86c0,2.89-0.45,5.01-1.36,6.37
				c-1.9-0.63-4.06-0.95-6.5-0.95c-4.97,0-8.6,0.5-10.91,1.49c-2.3,1-4.52,2.12-6.64,3.39c-2.12,1.27-4.27,2.71-6.44,4.34
				l-6.23,4.61c-2.08,1.63-3.75,3.12-5.01,4.47l-31.03,36.45l57.04,103.79c7.05,12.65,12.69,19.87,16.94,21.68
				c1.54,0.63,3.52,0.95,5.96,0.95c2.44,0,4.65-0.77,6.64-2.3c0.99,1.36,1.49,2.91,1.49,4.67s-0.5,3.41-1.49,4.95
				c-0.99,1.54-2.3,2.85-3.93,3.93c-3.71,2.53-8.4,3.79-14.09,3.79s-10.84-1.45-15.45-4.34c-4.61,2.89-9.85,4.34-15.72,4.34
				c-5.87,0-11.11-1.45-15.72-4.34c-4.61,2.89-9.64,4.34-15.11,4.34c-5.47,0-9.71-1.24-12.74-3.73c-3.03-2.48-4.54-5.44-4.54-8.88
				c0-1.81,0.5-3.39,1.49-4.74c1.99,1.54,4.52,2.3,7.59,2.3c5.69,0,9.89-2.21,12.6-6.64l-41.87-83.74l-12.6,14.77v65.44
				c2.35,6.77,7,10.16,13.96,10.16c2.98,0,5.46-0.77,7.45-2.3c1.08,1.17,1.63,2.67,1.63,4.47c0,1.81-0.52,3.52-1.56,5.15
				c-1.04,1.63-2.37,3.03-4,4.2c-3.43,2.35-7.59,3.52-12.47,3.52C1362.76,2046.44,1358.01,2045.04,1353.68,2042.24z
				 M1327.39,2007.82c4.52-1.71,7-7.63,7.45-17.75c0.54-10.12,0.81-24.12,0.81-42s-0.02-29.79-0.07-35.7
				c-0.05-5.92-0.12-10.68-0.2-14.29c-0.27-10.66-1.29-17.09-3.05-19.31c-1.76-2.21-3.41-3.68-4.95-4.4
				c0,31.44-0.54,49.32-1.63,53.66c-1.27,3.61-4.34,6.19-9.21,7.72c5.42,1.9,8.49,4.2,9.21,6.91c1.08,4.34,1.63,20.19,1.63,47.56
				V2007.82z M1422.92,2007.82c1.08-1.44,1.63-3.57,1.63-6.37c0-6.14-2.12-13.14-6.37-21l-26.42-54.2l-6.1,6.37L1422.92,2007.82z"/>
			<path class="st0" d="M1576.27,2046.44c-5.96,0-11.25-1.45-15.85-4.34c-4.61,2.89-8.88,4.34-12.8,4.34
				c-3.93,0-7.16-0.34-9.69-1.02c-2.53-0.68-4.74-1.6-6.64-2.78c-3.88-2.35-5.83-5.28-5.83-8.81c0-1.81,0.5-3.39,1.49-4.74
				c1.99,1.54,4.52,2.3,7.59,2.3c8.04,0,13.59-3.43,16.67-10.3v-66.26c0-4.15-0.86-7.23-2.57-9.21c-2.71-3.34-7.36-6.64-13.96-9.89
				c6.14-2.8,10.12-5.28,11.92-7.45c3.07-3.52,4.61-7.5,4.61-11.92v-57.18c-3.07-6.95-8.63-10.43-16.67-10.43
				c-3.07,0-5.6,0.77-7.59,2.3c-1-1.35-1.49-2.91-1.49-4.67c0-1.76,0.52-3.41,1.56-4.95c1.04-1.53,2.46-2.84,4.27-3.93
				c4.15-2.53,8.92-3.79,14.29-3.79c5.37,0,10.32,1.49,14.84,4.47c4.7-2.98,10.07-4.47,16.12-4.47c6.05,0,11.56,1.76,16.53,5.28
				c9.57-3.52,20.64-5.28,33.2-5.28c9.3,0,17.25,0.9,23.85,2.71l12.06,3.25c1.44,0.36,2.84,0.54,4.2,0.54
				c2.53,0,3.79-1.81,3.79-5.42c0-0.9-0.32-2.44-0.95-4.61c2.53-0.45,5.74-0.68,9.62-0.68c3.88,0,7.18,1.29,9.89,3.86
				s4.07,6.28,4.07,11.11c0,4.83-0.86,8.38-2.57,10.64c2.44,3.61,3.66,8.02,3.66,13.21c0,5.2-1.76,9.55-5.28,13.08
				c1.08,2.71,1.63,5.35,1.63,7.93s-0.43,4.92-1.29,7.05c-0.86,2.12-1.92,3.91-3.18,5.35c-2.53,2.62-5.1,3.93-7.72,3.93
				c-3.79,0-7.23-0.81-10.3-2.44c1.08-2.17,1.63-5.37,1.63-9.62c0-9.94-2.49-18.65-7.45-26.15c-6.77-10.3-16.94-15.45-30.49-15.45
				c-6.87,0-13.08,1.67-18.63,5.01c-5.56,3.34-9.46,8.13-11.72,14.36v52.44c3.16,1.99,6.12,2.98,8.88,2.98
				c2.75,0,4.83-0.04,6.23-0.14c1.4-0.09,2.82-0.27,4.27-0.54c3.7-0.54,6.55-1.26,8.54-2.17c3.79-1.81,5.69-6.23,5.69-13.28
				c0-3.97-0.95-7.05-2.85-9.21c1.81-1.26,4.07-1.9,6.78-1.9c6.05,0,10.43,2.44,13.14,7.32c0.99,1.72,1.49,3.61,1.49,5.69
				c0,2.08-0.54,4.65-1.63,7.72c3.7,4.25,5.56,9.28,5.56,15.11s-1.85,10.86-5.56,15.11c1.08,3.07,1.63,5.85,1.63,8.33
				c0,2.49-0.5,4.86-1.49,7.11c-1,2.26-2.21,4.06-3.66,5.42c-2.8,2.53-5.96,3.79-9.48,3.79c-2.53,0-4.79-0.72-6.78-2.17
				c1.9-3.16,2.85-6.86,2.85-11.11c0-8.4-2.3-13.59-6.91-15.58c-4.07-1.63-8.72-2.44-13.96-2.44c-5.24,0-9.49,0.95-12.74,2.84v67.75
				c5.24,9.21,15.36,13.82,30.35,13.82c16.98,0,28.54-5.24,34.69-15.72c7.13-12.01,10.71-24.88,10.71-38.62
				c0-3.97-0.36-7.05-1.08-9.21c2.26-2.26,4.61-3.39,7.04-3.39c2.44,0,4.29,0.34,5.56,1.02c1.26,0.68,2.39,1.51,3.39,2.51
				c2.17,2.44,3.25,4.92,3.25,7.45l-0.81,6.64c0,1.72,0.45,3.12,1.36,4.2c1.81,1.9,2.71,3.68,2.71,5.35c0,1.67-0.54,3.68-1.63,6.03
				c2.08,1.18,3.95,2.91,5.62,5.22c1.67,2.3,2.51,4.67,2.51,7.11c0,5.15-2.17,9.75-6.5,13.82c1.9,2.71,2.84,6.62,2.84,11.72
				c0,5.1-1.47,9.44-4.4,13.01c-2.94,3.57-6.75,5.35-11.45,5.35c-2.53,0-5.15-0.27-7.86-0.81c0.36-1.99,0.54-3.98,0.54-5.96
				c0-4.15-1.9-6.23-5.69-6.23c-4.25,0-8.49,0.86-12.74,2.57c-10.03,4.07-21.43,6.1-34.21,6.1c-12.78,0-23.64-1.67-32.59-5.01
				C1587.97,2044.77,1582.5,2046.44,1576.27,2046.44z M1564.21,2007.82c4.52-1.71,7-7.63,7.45-17.75c0.54-10.12,0.81-24.12,0.81-42
				s-0.02-29.79-0.07-35.7c-0.05-5.92-0.11-10.68-0.2-14.29c-0.27-10.66-1.29-17.09-3.05-19.31c-1.76-2.21-3.41-3.68-4.95-4.4
				c0,31.44-0.54,49.32-1.63,53.66c-1.27,3.61-4.34,6.19-9.21,7.72c5.42,1.9,8.49,4.2,9.21,6.91c1.08,4.34,1.63,20.19,1.63,47.56
				V2007.82z M1598.36,2006.47c0,0.27,0.04,0.5,0.14,0.68L1598.36,2006.47z"/>
			<path class="st0" d="M1814.85,2042.1c-4.61,2.89-9.85,4.34-15.72,4.34c-5.87,0-11.11-1.45-15.72-4.34
				c-4.61,2.89-8.88,4.34-12.8,4.34c-3.93,0-7.16-0.34-9.69-1.02c-2.53-0.68-4.74-1.6-6.64-2.78c-3.88-2.35-5.83-5.28-5.83-8.81
				c0-1.81,0.5-3.39,1.49-4.74c1.99,1.54,4.52,2.3,7.59,2.3c8.04,0,13.59-3.43,16.67-10.3v-66.26c0-4.15-0.86-7.23-2.57-9.21
				c-2.71-3.34-7.36-6.64-13.96-9.89c6.14-2.8,10.12-5.28,11.92-7.45c3.07-3.52,4.61-7.5,4.61-11.92v-57.18
				c-3.07-6.95-8.63-10.43-16.67-10.43c-3.07,0-5.6,0.77-7.59,2.3c-1-1.35-1.49-2.91-1.49-4.67c0-1.76,0.52-3.41,1.56-4.95
				c1.04-1.53,2.46-2.84,4.27-3.93c4.15-2.53,8.92-3.79,14.29-3.79c5.37,0,10.32,1.49,14.84,4.47c4.7-2.98,9.94-4.47,15.72-4.47
				c5.78,0,11.02,1.49,15.72,4.47c10.21-3.88,21.52-5.83,33.94-5.83c12.42,0,22.83,1.13,31.23,3.39c8.4,2.26,15.63,5.47,21.68,9.62
				c12.19,8.4,19.78,20.1,22.76,35.09c1.17,6.69,5.46,11.74,12.87,15.17c-7.05,3.98-11.65,10.3-13.82,18.97
				c-4.43,17.89-15.49,29.04-33.2,33.47c9.12,2.44,16.58,7.45,22.36,15.04c5.96,7.86,8.94,17.12,8.94,27.78v13.55
				c0,13.01,4.2,21.41,12.6,25.2c2.53,1.17,5.28,1.76,8.26,1.76c2.98,0,5.46-0.77,7.45-2.3c0.99,1.36,1.49,2.91,1.49,4.67
				s-0.45,3.41-1.36,4.95c-0.9,1.54-2.12,2.85-3.66,3.93c-3.25,2.53-7.05,3.79-11.38,3.79s-8.58-1.17-12.74-3.52
				c-7.59,4.15-14.68,4.56-21.27,1.22c-2.53,1.54-5.2,2.3-7.99,2.3c-2.8,0-5.49-0.63-8.06-1.9c-2.58-1.26-4.86-3.34-6.84-6.23
				c-4.25-6.23-6.37-15.81-6.37-28.72v-10.03c0-20.87-5.96-34.42-17.89-40.65c-3.98-2.08-8.63-3.12-13.96-3.12h-15.85v65.99
				c2.44,6.42,7.09,9.62,13.96,9.62c3.07,0,5.6-0.77,7.59-2.3c0.99,1.36,1.49,3.34,1.49,5.96c0,2.62-1.42,5.17-4.27,7.66
				s-7.11,3.73-12.8,3.73C1824.34,2046.44,1819.28,2044.99,1814.85,2042.1z M1787.21,2007.82c4.52-1.71,7-7.63,7.45-17.75
				c0.54-10.12,0.81-24.12,0.81-42s-0.02-29.79-0.07-35.7c-0.05-5.92-0.11-10.68-0.2-14.29c-0.27-10.66-1.29-17.09-3.05-19.31
				c-1.76-2.21-3.41-3.68-4.95-4.4c0,31.44-0.54,49.32-1.63,53.66c-1.27,3.61-4.34,6.19-9.21,7.72c5.42,1.9,8.49,4.2,9.21,6.91
				c1.08,4.34,1.63,20.19,1.63,47.56V2007.82z M1850.08,1850.38c-17.34,0-26.02,6.73-26.02,20.19v55.42c0,4.7,1.85,7.86,5.56,9.48
				c3.52,1.54,8.74,2.3,15.65,2.3c6.91,0,11.74-0.38,14.5-1.15c2.75-0.77,5.13-2.1,7.11-4c4.06-3.88,6.1-10.39,6.1-19.51v-39.56
				c0-11.29-4.7-18.52-14.09-21.68C1856.09,1850.87,1853.15,1850.38,1850.08,1850.38z M1880.7,1970.7c3.61,4.06,5.42,9.03,5.42,14.9
				v17.89c0,15,2.98,22.99,8.94,23.98c1.63,0.27,3.21,0.23,4.74-0.13c-3.25-5.06-4.88-10.39-4.88-15.99v-18.97
				c0-7.13-1-12.2-2.98-15.18C1888.52,1972.14,1884.77,1969.97,1880.7,1970.7z M1882.06,1859.05c2.8,6.32,4.2,16.44,4.2,30.35
				c0,23.94-1.13,38.26-3.39,42.95c4.97-0.99,8.54-7.63,10.7-19.92l1.08-5.55c0.99-5.87,3.88-9.62,8.67-11.25
				c-3.52-1.17-5.78-2.57-6.77-4.2c-1.08-1.9-2.06-5.13-2.91-9.69c-0.86-4.56-1.74-8.24-2.64-11.04c-0.9-2.8-1.85-5.01-2.85-6.64
				C1886.44,1861.17,1884.41,1859.5,1882.06,1859.05z"/>
			<path class="st0" d="M2087.58,2042.1c-4.61,2.89-9.85,4.34-15.72,4.34c-5.87,0-11.11-1.45-15.72-4.34
				c-4.61,2.89-8.88,4.34-12.8,4.34s-7.23-0.34-9.89-1.02c-2.67-0.68-5.04-1.6-7.11-2.78c-4.34-2.35-6.5-5.28-6.5-8.81
				c0-1.81,0.5-3.39,1.49-4.74c1.99,1.54,4.63,2.3,7.93,2.3c3.3,0,6.64-0.86,10.03-2.57c3.39-1.71,5.94-4.38,7.66-7.99v-26.69
				c0-4.15-0.81-7.23-2.44-9.21c-2.89-3.52-7.59-6.86-14.09-10.03c6.05-2.8,10.03-5.24,11.92-7.32c3.07-3.52,4.61-7.5,4.61-11.92
				v-4.88l-54.47-94.31c-5.24-4.7-9.89-7.05-13.96-7.05c-4.06,0-7.27,0.77-9.62,2.3c-0.99-0.72-1.49-2.08-1.49-4.06
				c0-1.99,0.32-3.82,0.95-5.49c0.63-1.67,1.63-3.14,2.98-4.4c2.89-2.71,7.09-4.06,12.6-4.06c5.51,0,10.39,1.58,14.63,4.74
				c4.52-3.16,9.87-4.74,16.06-4.74c6.19,0,11.27,1.54,15.24,4.61c4.79-3.07,9.26-4.61,13.41-4.61c4.15,0,7.5,0.29,10.03,0.88
				c2.53,0.59,4.74,1.47,6.64,2.64c4.06,2.35,6.19,5.6,6.37,9.76c0,2.53-0.5,4.11-1.49,4.74c-2.44-1.54-4.88-2.3-7.32-2.3
				c-5.24,0-9.48,0.95-12.74,2.85l40.51,77.77l38.48-77.91c-3.71-2.26-7.97-3.39-12.8-3.39c-4.83,0-8.56,0.77-11.18,2.3
				c-0.9-1.35-1.36-3.48-1.36-6.37c0-2.89,1.22-5.44,3.66-7.66c2.44-2.21,5.92-3.32,10.43-3.32c4.52,0,8.4,1.17,11.65,3.52
				c2.89-2.35,6.41-3.52,10.57-3.52c4.15,0,7.63,1,10.43,2.98c3.97-1.99,7.95-2.98,11.92-2.98c3.97,0,7.16,1.29,9.55,3.86
				c2.39,2.57,3.59,5.89,3.59,9.96c0,2.08-0.5,3.48-1.49,4.2c-2.35-1.54-5.24-2.3-8.67-2.3c-5.96,0-11.25,1.63-15.85,4.88
				l-47.42,93.9v7.45c0,4.43,0.95,7.72,2.85,9.89c3.07,3.43,7.63,6.55,13.68,9.35c-6.5,3.16-10.66,5.83-12.46,7.99
				c-2.71,3.34-4.07,7.09-4.07,11.25v26.69c1.63,3.61,4.13,6.28,7.52,7.99c3.39,1.72,6.75,2.57,10.09,2.57c3.34,0,6.01-0.77,8-2.3
				c0.99,1.36,1.49,2.91,1.49,4.67s-0.59,3.41-1.76,4.95c-1.17,1.54-2.76,2.85-4.74,3.93c-4.52,2.53-9.46,3.79-14.84,3.79
				C2097.18,2046.44,2092.19,2044.99,2087.58,2042.1z M2059.94,2007.82c4.79-1.81,7.41-8.9,7.86-21.27
				c0.09-3.79,0.14-7.68,0.14-11.65v-22.63c0-4.34-0.81-7.9-2.44-10.7l-27.78-50.27c-3.88-6.78-6.69-10.98-8.4-12.6
				c-2.71-2.53-5.96-3.97-9.76-4.34l40.65,75.34v6.64c0,5.33-0.36,8.99-1.08,10.97c-1.08,3.43-4.43,6.01-10.03,7.72
				c6.05,2.26,9.48,5.01,10.3,8.26c0.63,2.53,0.95,5.49,0.95,8.88c0,3.39-0.07,6.35-0.2,8.88
				C2060,2003.58,2059.94,2005.84,2059.94,2007.82z"/>
		</g>
	</g>
</g>
</svg>
